<mxfile host="Electron" agent="Mozilla/5.0 (Windows NT 10.0; Win64; x64) AppleWebKit/537.36 (KHTML, like Gecko) draw.io/26.2.15 Chrome/134.0.6998.205 Electron/35.2.1 Safari/537.36" version="26.2.15">
  <diagram name="Page-1" id="URyArjmMyLUZqwQEJPAF">
    <mxGraphModel dx="1878" dy="653" grid="1" gridSize="10" guides="1" tooltips="1" connect="1" arrows="1" fold="1" page="1" pageScale="1" pageWidth="850" pageHeight="1100" math="0" shadow="0">
      <root>
        <mxCell id="0" />
        <mxCell id="1" parent="0" />
        <mxCell id="Ygb4HO1aCdZlYL9R_Fgd-9" style="edgeStyle=orthogonalEdgeStyle;rounded=0;orthogonalLoop=1;jettySize=auto;html=1;exitX=1;exitY=0.5;exitDx=0;exitDy=0;entryX=0;entryY=0.5;entryDx=0;entryDy=0;" parent="1" source="Ygb4HO1aCdZlYL9R_Fgd-1" target="Ygb4HO1aCdZlYL9R_Fgd-4" edge="1">
          <mxGeometry relative="1" as="geometry" />
        </mxCell>
        <mxCell id="Ygb4HO1aCdZlYL9R_Fgd-11" style="edgeStyle=orthogonalEdgeStyle;rounded=0;orthogonalLoop=1;jettySize=auto;html=1;exitX=1;exitY=0.5;exitDx=0;exitDy=0;entryX=0;entryY=0.5;entryDx=0;entryDy=0;" parent="1" source="Ygb4HO1aCdZlYL9R_Fgd-1" target="Ygb4HO1aCdZlYL9R_Fgd-10" edge="1">
          <mxGeometry relative="1" as="geometry" />
        </mxCell>
        <mxCell id="Ygb4HO1aCdZlYL9R_Fgd-13" style="edgeStyle=orthogonalEdgeStyle;rounded=0;orthogonalLoop=1;jettySize=auto;html=1;exitX=1;exitY=0.5;exitDx=0;exitDy=0;entryX=0;entryY=0.5;entryDx=0;entryDy=0;" parent="1" source="Ygb4HO1aCdZlYL9R_Fgd-1" target="Ygb4HO1aCdZlYL9R_Fgd-12" edge="1">
          <mxGeometry relative="1" as="geometry" />
        </mxCell>
        <mxCell id="Ygb4HO1aCdZlYL9R_Fgd-1" value="SaveOrder" style="rounded=1;whiteSpace=wrap;html=1;" parent="1" vertex="1">
          <mxGeometry x="160" y="230" width="120" height="60" as="geometry" />
        </mxCell>
        <mxCell id="Ygb4HO1aCdZlYL9R_Fgd-4" value="PaymentService" style="rounded=1;whiteSpace=wrap;html=1;" parent="1" vertex="1">
          <mxGeometry x="500" y="230" width="120" height="60" as="geometry" />
        </mxCell>
        <mxCell id="Ygb4HO1aCdZlYL9R_Fgd-5" value="ChatService" style="rounded=1;whiteSpace=wrap;html=1;" parent="1" vertex="1">
          <mxGeometry x="-60" y="390" width="120" height="60" as="geometry" />
        </mxCell>
        <mxCell id="Ygb4HO1aCdZlYL9R_Fgd-10" value="ReviewService" style="rounded=1;whiteSpace=wrap;html=1;" parent="1" vertex="1">
          <mxGeometry x="500" y="350" width="120" height="60" as="geometry" />
        </mxCell>
        <mxCell id="Ygb4HO1aCdZlYL9R_Fgd-12" value="InventoryService" style="rounded=1;whiteSpace=wrap;html=1;" parent="1" vertex="1">
          <mxGeometry x="500" y="90" width="120" height="60" as="geometry" />
        </mxCell>
        <mxCell id="Ygb4HO1aCdZlYL9R_Fgd-17" style="edgeStyle=orthogonalEdgeStyle;rounded=0;orthogonalLoop=1;jettySize=auto;html=1;exitX=1;exitY=0.5;exitDx=0;exitDy=0;entryX=0;entryY=0.5;entryDx=0;entryDy=0;" parent="1" source="Ygb4HO1aCdZlYL9R_Fgd-14" target="Ygb4HO1aCdZlYL9R_Fgd-1" edge="1">
          <mxGeometry relative="1" as="geometry" />
        </mxCell>
        <mxCell id="Ygb4HO1aCdZlYL9R_Fgd-14" value="CartService" style="rounded=1;whiteSpace=wrap;html=1;" parent="1" vertex="1">
          <mxGeometry x="-60" y="230" width="120" height="60" as="geometry" />
        </mxCell>
        <mxCell id="Ygb4HO1aCdZlYL9R_Fgd-16" style="edgeStyle=orthogonalEdgeStyle;rounded=0;orthogonalLoop=1;jettySize=auto;html=1;exitX=1;exitY=0.5;exitDx=0;exitDy=0;entryX=0;entryY=0.5;entryDx=0;entryDy=0;" parent="1" source="Ygb4HO1aCdZlYL9R_Fgd-15" target="Ygb4HO1aCdZlYL9R_Fgd-14" edge="1">
          <mxGeometry relative="1" as="geometry" />
        </mxCell>
        <mxCell id="Ygb4HO1aCdZlYL9R_Fgd-18" style="edgeStyle=orthogonalEdgeStyle;rounded=0;orthogonalLoop=1;jettySize=auto;html=1;exitX=0.5;exitY=1;exitDx=0;exitDy=0;entryX=0;entryY=0.5;entryDx=0;entryDy=0;" parent="1" source="Ygb4HO1aCdZlYL9R_Fgd-15" target="Ygb4HO1aCdZlYL9R_Fgd-5" edge="1">
          <mxGeometry relative="1" as="geometry" />
        </mxCell>
        <mxCell id="Ygb4HO1aCdZlYL9R_Fgd-15" value="Auth" style="rounded=1;whiteSpace=wrap;html=1;" parent="1" vertex="1">
          <mxGeometry x="-270" y="230" width="120" height="60" as="geometry" />
        </mxCell>
        <mxCell id="4Wl4fd-WkMTtr2uqgtyP-3" style="edgeStyle=orthogonalEdgeStyle;rounded=0;orthogonalLoop=1;jettySize=auto;html=1;exitX=1;exitY=0.5;exitDx=0;exitDy=0;entryX=0;entryY=0.5;entryDx=0;entryDy=0;" parent="1" source="4Wl4fd-WkMTtr2uqgtyP-1" target="4Wl4fd-WkMTtr2uqgtyP-2" edge="1">
          <mxGeometry relative="1" as="geometry" />
        </mxCell>
        <mxCell id="4Wl4fd-WkMTtr2uqgtyP-1" value="Lấy danh sách convers" style="rounded=1;whiteSpace=wrap;html=1;" parent="1" vertex="1">
          <mxGeometry x="-590" y="750" width="120" height="60" as="geometry" />
        </mxCell>
        <mxCell id="4Wl4fd-WkMTtr2uqgtyP-6" style="edgeStyle=orthogonalEdgeStyle;rounded=0;orthogonalLoop=1;jettySize=auto;html=1;exitX=0.5;exitY=1;exitDx=0;exitDy=0;entryX=1;entryY=0.5;entryDx=0;entryDy=0;" parent="1" source="4Wl4fd-WkMTtr2uqgtyP-2" target="4Wl4fd-WkMTtr2uqgtyP-4" edge="1">
          <mxGeometry relative="1" as="geometry" />
        </mxCell>
        <mxCell id="4Wl4fd-WkMTtr2uqgtyP-2" value="Lấy chi tiết cuộc trò chuyện" style="rounded=1;whiteSpace=wrap;html=1;" parent="1" vertex="1">
          <mxGeometry x="-360" y="820" width="120" height="60" as="geometry" />
        </mxCell>
        <mxCell id="4Wl4fd-WkMTtr2uqgtyP-4" value="Hiển thị real time cuộc trò chuyện" style="rounded=1;whiteSpace=wrap;html=1;" parent="1" vertex="1">
          <mxGeometry x="-590" y="910" width="120" height="60" as="geometry" />
        </mxCell>
        <mxCell id="4Wl4fd-WkMTtr2uqgtyP-5" value="Click vào chi tiết 1 convers" style="text;html=1;align=center;verticalAlign=middle;whiteSpace=wrap;rounded=0;rotation=1;" parent="1" vertex="1">
          <mxGeometry x="-410" y="780" width="60" height="30" as="geometry" />
        </mxCell>
        <mxCell id="4Wl4fd-WkMTtr2uqgtyP-7" value="Nhắn tin với người dùng khác" style="text;html=1;align=center;verticalAlign=middle;whiteSpace=wrap;rounded=0;" parent="1" vertex="1">
          <mxGeometry x="-400" y="950" width="60" height="30" as="geometry" />
        </mxCell>
        <mxCell id="qJlErdu5aUXJ0se8Xjs8-1" value="" style="shape=image;verticalLabelPosition=bottom;labelBackgroundColor=default;verticalAlign=top;aspect=fixed;imageAspect=0;image=data:image/png,iVBORw0KGgoAAAANSUhEUgAAA9MAAAKRCAYAAABX6vqWAAAAAXNSR0IArs4c6QAAAARnQU1BAACxjwv8YQUAAAAJcEhZcwAADsMAAA7DAcdvqGQAAPGOSURBVHhe7P0PbBxnfuB9/ubGCIMRpg0fQmLwQoROZJ8dD+Usw+zCIWHEDHyieMFZs35j9e1A0syCYWbh1xrHPl1WPEI5QYjAobInjOKRR3hjhsisKThpaeLX0ouAos4YatYg45sdmu9ZHK2VFrEGmWBABjuYDmawPDiYe/5Vd1V1dXcV2d1skt+Pp0fdzer681TVU8+vnj/1mYMHD/5CAAAAAABAbP879y8AAAAAAIiJYBoAAAAAgIQIpgEAAAAASIhgGgAAAACAhAimAQAAAABIiGAaAAAAAICECKYBAAAAAEiIYBoAAAAAgIQIpgEAAAAASIhgGgAAAACAhAimAQAAAABIiGAaAAAAAICECKYBAAAAAEiIYBoAAAAAgIQIpgEAAAAASIhgGgAAAACAhAimAQAAAABIiGAaAAAAAICECKa3Ufvzp+X8a0el3X0GUD/D1xZleXFKht3nRjPLX56Rcfd5p9nu9NsZxmVmeVlmLrqPO8pOXneghi7OqLx6UaaG3GfscORtqK8aB9P2gC1bYDQZlPr7NhfIur56WW7NLcr9B3pd3ev+otwaO+qmaIRR+fall+Xk1y/Ln4+5r4CdwDuPI16762Ll8rM7OzX83WbuOFm81kzhN/u0luwNop193o/f0XkXgVOz8o6x8ufssEwtNuE5PTQli01zbviDSZdeZcrhFc9pl6fPvGO3zeyXMq/ofN+uR9Tf7HnYHOlVOObcayfnb2iMPVcz3a8ygxvnjkrXF1LSIhuy8TP12lB/aElJ+4E2O1FDrMn6T9Q/n67Las5+A+wceZm70CEdHb7XhTlpO6YvPhE303TBwn/x1hflJg9oxu9kJP0wKx2HR9w3m+C78TDam1JfpCXjL7jvwHSJRxXYjrSpYyQra72nmiZQqck+dfZ8Tb06dk/1rknWnPc7t8XFyGGVd11fk75X9L50gQbBdfPpzBDU1MSEzC7lRVKHpD/iGE+36euUSNv+0pxteL8uI+dk4YUT0u279o/Nq/mp77O+77qPT5jfBFzsUVfAnEyX/G1cejrzklezSfdsLSfZar6sfz+q8zVvW67nJK3KNRx7qGSPBdMvy6nfSasgWoUC//mSPP/4k/LkU+r1ZIc8f/625HR+0DATMvS0OlEff1qGJt1XwE42qS+wYzKXVwFj+GKm/3a7TUa9u71H1mSsBgFN3aigNtM6t/V1PDMQUeDolhPeOb/T0iWm4Wun5NDSFbWdIzJQCFS2Wa32aSOYWq1mDlBV0PlKn6xdH5ARdQxfmW+TwaZqgZCQPk9fFzm1PCptt/X5Oi1tZwmom0dOcg9VoLWTbtqY62GHDJxxn5vIxHv3JC8paXvCfVGgg1r7LtXVH8qzh6W/SwXa+TW1NzZnvCct8nBBSnJgHWTn78mV22rOnT3buI/HJdObkpzO19w3Om/I6mPvyB6+cYqq9lgw3S6pffrfvNz7f78hS+Y7a+k7L8mLL0XcSQOQwISc0BfEqLvevsCyo/uEmrJ5DX+cbdw67qB0ie29K8WaCROozNr326ih+3TXU+d5dzFQmDjeLVfes+93rEDwMyIDHVdk9QmKz81i4e05VXJL7+ybNlukm0LXpNvM5KqsqX9KaoFNzXFecg91zXWbeu+XFl1pnV+a3VweOjQlg515mXs7HErrVkxqqXq+ZxZUoJ6Wnu2qBXY15wuhGyAjC2XKNICz7cG013/Zawq5/GBRZi75+i4fOCmX3/1AFr3+zQ/uy+L0ZTn5lPu7PhG9ZllfOylX79w300U3ycjJmql9TslvHLssRw+YL8vol9HJGVm871vu96dk9HlvuLByyz0qkx/Y33zwZqgP9ms35L6e10c35GX/7wMnaJecvHRLPli08zOv+4tyo5D/VFsvYJuZC2JKDj1XvOiH+yCFj/ti0yxv3AX3imzyHJpG1+CZ5tTJa5K8flqL196056Nb3sSkr7hgagkTNvNyvymso9q2YMHEaoZ0SbYMrdp0w9L/ymjx7/r1Sr/7m2XSXf8uIp2SFBWj+7u69Susl/08eta3TlHbZtLK/d28yqSbW2fTbD/V51oVlE4b3LcR+zWq5tlbh7N9IvPZYu1I3HWLYtbXTu8d796r3DFdad2NkvVZlswT4XMmaplxaxarH8uV09BNF/qNn1kv//FWciz2S+5McZuSnyeoKdMCIi+p2N1GwsdQ5X68xenKH6Nxzx/DHU+BaUrOm7jnQ62NyMJD9U+oFtg0487fk+zbuuY6FNS6QPvee5u7HTn83CFJqXnPhltiDvXLoZQ3X7tepbXAdh+V7j9XjvZdS7aSL5ua86ia94/X1JZH1eQD1vYG0y9OyqTrv5xfzUnuQU5W/kkdsF9wfZcPqBPlr8/L0adaRX5s/577iTpPHj8q5ycmJWOnKmg7dlqOdOpG3OVMyBt/kxPTRbrzqFy+owL3q6cjgup+lWleleH+tLTk3XJ/vCGp/X0y/CffltHQ9MHl3pQ351fMu9Zf+9fiD6dPP9Nlmpiv/yArb9ivQtRyp2/I+Re6pDXVIhtum9c3WiT1mPt7gvUCtoe9aZVq88LHccl03ZMxr/ZVvbIPU9J3NlSQMBfAHlnwprswJ/nOTPACai6YGWmbHyvW5l4XyRyLClUr0wWjjL5TfkH37/p9248soonZ+Jf7VCFgTrJxm+vpApMKhtauu/VTr7GlQ6b5WFATpUucZWhxpruYkUNLvvXoyEpO/y4cdLQOyuIrIlfC0yUIqEcO624FKs2+XJy36Ret9pfXnHv42qCIb19ErbMpYKm0yvn32byuu4ngajBNs329HDO9r+m+ovvYnZIrhXlF7teyvGPSFloTrVsFh15Zlp4F/zxUcTmiL2D1dVfX5SMS6B9p5xUuuOrf+ZdZpgtIWA3P8agbe4ZaxmCnyqlun7C1bCXnrFpXiTgW454nqIuJ41fs+V6t24gJWkPHkNpX0jsavPkR+1izQZvpJlKYLmFfWr1Ox/Q4Eu736qWbD28XU9sqbbK/cM7aZtymhnhyVu6p7M1fc237S6/J6qa6Jbrm09755hMOsjddC1yrfHl9tbTm3dXkA+VsbzD9r/aLCpNFPrkpz//WgAwMDsizv/G8/D//0jbAHh47JX0qiFx5Z0i63d8Hnj4ns+vqj629knnNTOakJL3/p3L7/PPmJCnXT2V+dEBePH/T9o9+RP3myMtyefquTI0Ua056L46qQnaL5FUGO/C0W+5vPS9v/Uj9saVLjvxhr53QKF3u/I0PxYTTrZ3yf37GTKSclt7HTSgtS7ey9quQ9rOn5Ut6mk/XZXb8WXmyzy776e4nzXyTrRdQa+4usClo2IJy1N3dUiMy0B28iI6YJnv+C7mmgwhfXyV1cZxWhQ1/3y0T2D7MBgc3OTNgL6AJFAPp4sV24vi0KniHmxHaPmTxm7bpQCNtz1FfHqSbwZYWnJopXaovw4oxnVpucPCZEcnq9WjdH5xXak2mA9uv0kMHJypgycQtoKpfn3jdBjSmUGuCJLWOrxfnq9M+cD3w1tm72aN+c8r0kwteNyaODwQKYomE9oXdr5tovlizdUuJLEUfkyW1QFXXXTfx9h0Dij13SmtugudBhS4gPrU6xy177KV6M4ECsynAqzW2zTntOau3O7Cu+rgqORbjnieoj+J+OVX2BkYxDw4cQ2pfdasAWDoHC9er2MfaxYz0pYL5ip4u8vwpw6v19dfMjhwOnkcNFb7RZGqIVbi8qrdwQlZNOdvLs11/6aj+znGUaT7tzTdwfS13A6wWtpgvRw3KBmjbE0xv/P/sXZ7VvOhaYjlwRG68e1VOv9ilPizJzVvz6t+T0v+rtian/YVJV2jXr3HpNxF4i6S+YP5csD7/hrz0HX9P6GhL33lVFWKfl3N/uSArP1NftLRL39euqsKYDai/9C9sISvVOyp3C8u9Kye/aL6WRx/T61lUstz3L8msDnClXb74b1yA+1qvdOn+2p/My5vv2K/CTv6mq7lWvx/6M1u77Zd0vYDa0oVoe0feFiq9O+zBu79l+Zu4nVWFmHDhO6IJWM5WcavLneYC2zW9/KCJ1fj3jdPXFksCacs2MQsUjF0hoHT00TICTdaCzLZEaYZ0qboMJ+50ir9JpG16F5omqmDmagASFVpUIVk3/0wfmZGZV3TzaD3wmftbgbsR5NYnowfZcQXFYGBVG7mF0JZtZruU2q1bhWMytF9ir7up1fPSNGPmEZwmYplVm0vaY7lkHZQk57ifHWzJX2B2BXivGb07Z0v6ckZtd4LjH3Xi3cAI3SApqJAHBwO1+MeaHThruiRfSbLvzTx1y4Yk3QIC55jNt3T5z/tc/UZ2JaEWZE+0BfKaYA2x7S8dlVZxlB94zN6kCO6riOtwjWw1X7Y3GoBSdQqmW+TRQo1sUfsjril0fk1u6n+/9ZqMvZOT/Kct0vrUEXn5T27J8g9vyXnT/1dN+1k90YbkZm/KzXdKX7d/oP/uycvf/W10jW+0JXlr9EV59qkhmfhI5ShqeenfOSUv6z+Z5aqg9sPo5b571x+wRy13RSZ+YKdp/7WviA6nvSbeS7OXRN8qiJJyyfPT9TLbkWi9gO0SuvB6BYJjvqahugbS/jW+of1iGppt5YKma5pUYJePDLjCBYgKhYByTIEkpmZKlxry+qRlJOtutrimd3Vkmn+q4y6t/v9K6MaHDepHA03P/a0EzKNgtjBCbT0157q5PqZnD8m9wg21bG3W0R3LNRVushoOtsw5629p473sDQI0n5HD+nhLSyYqMI2bB8c+1oZlv67A6cyEjg/vcYcxnRkodAuwv4/R7UPXprs8y8u3dI279zn2jexI7hFZrmtTybXO3XgwN75cf+m1j+2fElHXueiBx9wyI849c7MzUQulGgq3oNLqkS9hV6lxML0ueV3TK+3SWTIgVrsMP2G/28jr9iPairx1ekC6H39eRq7elIUfb4g81iUn//gbvoO5RTY+uSSvnn615HXphpvE86n7N5FZGXtX37lW9qXUWvr8dC5yuef+LBQORyx35fysLOi02P9F+b8+45p4f7okC39RWuMc9uj/PjRwWVjc9QK2Q6BJ17B5hI5uStfRsY1N2jy6L9V1VUToHY3u53gma/rkVau5KMvUvMXRZOlSK6rg5DVL3sqznJPeGNCP4upTKV/S/PPijGuFUOa5p4qpXWqwuLWsDVm3hMF6oU/6lgryZbiaojji11S75uUuaCgZCMmcs/6WNsFXueMG20k/ck/v04hnT8fNg2Mfa67Js8mro46RBPl3ITh24wdsqWY5gTLBYLHVRlTrJltzrW9CmaA3olVGHCXnW4FbZuDmgPeyN+eKfba9wYPrq2xLA3ODZpM3E7An1DiYzsrSJ/Zd+uify+VCQN0uR89+U75kmiNvmNpZ7ejXXnaDfy1J9j+8Ki/+u9u2r7E5mCfkR6v6g0jXURVc+wfXeuplmbw66j4kMS43pi/LcK8/ZFZBvmlKp3y6YTLhuf9qg/3W3mEZf868tQ4clfNvXpaT7mNll+R793Uj9nb54mv9pon3xuK0nHPpE+XdJTdw2TOnfGlXVJv1AupI17Ye0/3VfCMRRyicc0lEDIrisXe4Y9I1BGUDanu3XjcxG782aIKG2AOPaaaAFtXfy/U5q2Jb06Vuymx71PNEN1MD4gXwt7tNn8jqo/3aQpzHNr/cjseehPvGl+6v2q1bhWMyasCdpMx+q4ViAT4s+liunoaGqWWzQUPJQEhlz1k0Na/P8rFTcsh9ZVTany5/sa0S4h9rJsiKyq82TXeZ0gFjpS4PNRRqwl3gbii09fSoMync3NrVXLf2SE+rCno39Uis8gOPBfdFmBtnI5TmxUFNHdfPu1ZKu4RY5njY5M0E7A01DqZX5Nw3VQZhhstOy9E/vSvL9+/L/ft35fJQjzqZVUD54F258i0zsbQ9+/tmRO270zMyo1533zpqa4ZXH8q0+mfMm9djup+Jm+7OB3L/u6elP725M0iPBD56za3XR3bdvKY66++/K2Pq35sX3pS5n6g3ahsyV+/LB3f0+t2VxTsqYP1Xv2Kaa8fxxn9aMn3C00/pJt7rMp+NHsPbM//Nt2ROx8su7RbnbLp8sHjf3H2t1XoB9WCa95pH+vgHfnF39f0XRRf8JOfVMIVHj9a1j+59XG6QmaiA2lxQVQAzGB4YRTP9mys1z/MGPBoN1JiYmtPAJjdpumyVK5z5C6il2+4JNdN0N2L8fRNNE+2KfQyLNfxm8ChTwE4VR/t1fXT9BWtTs+reG95vzgZriYavzVQMyrcU6LomlIFRiaP2V9V1s33BI1tZhIRvMozfGbWDKkU0v6zE1t74t3tcZjYz0nakBMdy3DQ0vEfuDKqgIRxURJ+zJm3vxBtcqij+/sDW2ebeKUkF8hdba12Stxdu9HpdfOIfa97glCUj0atpC8eMeq+bKJfUlDsl+clmbhxuijomzQB7Ud2VXP/kznRk7bG9FqZFF7c31Y3IbGPUmA9unSoEqMHA1muS7m+JoOah8373ybOlfNn1x08f813jzfGg8kn/4HNASO37TL83Ir/379WB/zAvG7r5c0uL/p9p2r30zjl5cXBEZu2UsnQ/J+s/b5H2x9XJql7tLXlZ/+imnDv5kp3GzWvODFSWstMdSMnGPy7Jzam3zDySWZD5ebXMvApx9XrtU6/Pbkj+xzl1Qr8qLw65U+UTlcn+23Ny84Febou0qowm/Xi7tPyTmu5GVm7bqar7VlbmdYH5EfVaX5LpcLP0ML3czKsyMb8iehVTX7DpopuXrOpa+lqtF7BluoAf7Oc06h7zFG4WaR9fpJu0uWn145A20zdYU8GFV6tcWHbPghsULRk9mrEXUAeeN2suqLqAVnrX3NyhrtKH2puvfgyHt476cRzhfsPNmi5b40bkVoWeSttuqAB4bG2wuL7uRkyxeXi1ZvY6cNEBYU6yviblZoRWb6Af3awylC76UU3+PtPayGHdr1sCx/Ro11rlmgjXJcD+JmlzzeLI5fZ5qOpVZn9VXLdKgy0F6GbM09Lmm0emU6XbJppq21HA/ee/flSUbZZZE7GP5fhpqNnjQp3XEeev3ib9O/85q/vZty0kLEDH3h+oDVeDGaaPIXVsmEdhefvTPfoscH1Kcqx5j0vzptOvI2sJWi61Ba+Z5jFZyc4/nRfE7nbggnt9HPetZ8t2u7GPyFIqPhIqKiCuruz10tUoV6zt9lpcudHSC08fKJyjp0Re19dQO3nBlvJlm8bZh77r8ib2E/aezxw8ePAX7j0A7Ey64GAG8qpN/2Pz6Cw9gFagAGKDt7bb5R+913RqnC61Ep2+Ibom6WybTO+mPuW1pvevKtCPhR6xFmDSUQ8WtsMLhOZY3kLBthHpEGd/YG/YLefdZu317ceeUqfRvAGgcWyfphqNeqwKAYNRNaL6brok7EO9zWqaLonZUZ832+RV9x+XKn3vdwM7+vnmBiLS+zeyPyJKmGcK17nfI/sDBaaf8pqs7tFAshHnG9AsCKYB7Bg68Aj3SdPf1bJPky0ERATNuslwk9Y4NSJdGk0362Mk5cp0k8Qd00piO3k3yOoc6LI/YFXqp7w36HOhgxYa2CNo5g1g5zBNPVUhJUD3/dx6U2DT9FgPPKMf+7PTCgF1TJd6iNXMG7WxW5pbbqaZt9l2O0iRflwbgS7qyp8P60dpkb8BewLBNAAAAAAACdHMGwAAAACAhAimAQAAAABIiGAaAAAAAICECKYBAAAAAEiIYBoAAAAAgIQIpgEAAAAASIhgGgAAAACAhAimAQAAAABIiGAaAAAAAICECKYBAAAAAEiIYBoAAAAAgIQIpgHsauN3lmV5cUqG3edNGZqSxeVFmRpyn9FUhq8tyvLyjIy7zwAAAI1AMA2gaZjAd3lZZi66L+puWKYWaxBsG7Wc1y5zcabqfq3JTY8QG2RzEwQAANQHwTSApjFyuEM6ruckfaQxAenwtVPSJ3My1n1CJtx3mzchJ7o7ZGzpkIzeGXe12frmADWmcmbA7tdjjU2LiePdMjYv0vcKNzgAAEDtEUwDaB66BvNYWvJLszUIbqtQwe6p3jXJ1iSQLtIBXMdCjyyfPST3LnRIx4U1Gax3QG0C9+YJ2k2NsL6h4KcC6rH5Nsn4v9f729VGmxspNd4Xmt4f2fU+OXWNcBoAANQWwTSA5qFrMDs6pPt43UNpZVaudAzIiPtUU2Y7uuXEpHo/eUK6O7KSq2dT4yfaJOXeNjNzo+HtXKGWeHh/m3tXXzpQv/Ke+wAAAFAjBNMANmFcZkwTZu81I+OmX2yxf2rZQaFC02l2Wv/8Iv5uajBDyw3XflYR6Jc7OeGrBbXzXYxRe+n167av6Nrg0u3JSFoH1lWU/C7ch9j1PS55HUtL7nr5GwNmnQNNz+0rcntD0+h1GA/sS9c3PCLtvbQZ7RWZe7u4NoHtOjsqo+69me51Wxsdu890xPql3Z88dnnBfTOh9nf42Et2XFU/5gEAwN5CMA0gGRPMZKRtfszUIpvXdZGMCug2Z1wyXfdkzJuXemUfpqTvbChQTfWpIKxHFrzpLsxJvjMTKwD2jCzk1HwOSX8o+Bm+NqgCspxMV6wR1+u0LD0L3nqOyVw+LZlAAGgDzVHdfNxbT/XKPlTTVQm6dGAX/J2a/7r7o2KCzWNtMqebjrtpxubz5m95tS8Gzpi35am0Wn5F5Io3/+s5SfWOBgcF08Hh2T5Zu+5bxtIhyfQmqPfOz6l96Wrly6aHmVJy173pYqrF+oXFOa5qfswDAIDdgGAaQCLjX+6T1MNssCm26Q9rA7vkRmQg1Fd25G0V0Eib7A8En3kVSPpqXydPyLQKylJd/dVrMz1nsioAVkHxl/1h+rD0d6lg7OFC1SbfwaB1Qk7cDgXnFzPSl8qpwDFYSzxyWAfe4eUGpdvC66Dmf9iliwrmBjv19geDT9MfOHYaqPXyp7NJC7XcHm+dVOB7JF0SmHvL2JSK6eFfdhx1WD+j+nFV+2MeAADsBgTTABIYl55OFZYtlIadE6tr7t0m+Zswn1XBi/qv7Qn3Ny1/T2ZDtZi5NRXMpNpKmvmWNyGzS+o3nT3FWu+hfjmUUgGVr1lytLzce88f8isfr6lvi+s53qPWJDIoj1huiNmWMjXtw88dklTE9mvlattLlKzXhKzqmu/W/TZoNOkgsrYa2kbFrNsmbCU9Srj9VLIPlM2un1H1uLLHfH5NpXPIlo95AACwoxFMA4hvaL/UfMgorw/sMSk2BdZNbd2fa23ivXtq3mnpcc2bKwWqyQzL/lb3dhPM4Fyu6bW5oeBrPm5qrevNDGKWl7WP3ect21p6lNiuQdbcMR91kwEAAOxtBNMA4ptclbh1cfFq7YZl6hXbhLajXiNrh7lmvLaJsW3iXZtHcbma3q1wo5l36NG/TV9e2298SzWvNRd3O2uQHn6mFUA81BgDAIBGIJgGkEBOdFwX1dfVNOktEe73XG66IFNb7N7Xg2karZsYuz69lQcei8821Y5quhy/X7Y1IgOmdt6mnwkOyzTlNulZi5r1Mwtq76bk0HPhZuZu3cO85uEFtjm0X+3SQzE3chKs3yaPvRKTs3Iv0TEPAAD2CoJpAAm4QbfCfXsvzkgmFEh5wVnfK77Rrkumc7WX/oBraEpObWV05jjMuqVl8EhbsoCuionjV+wI36HHMo3fGbUDcR0uv6TxO8Hf2BsKa7Kqg+QzA2JHOC99ZFhGD0zmHi+1NSOSnc+XjPA9fO2UWnf3wbH9tPvklO8YGL+TKem7vpX0KBV//eIde3ElOOYBAMCeQjANIBndFNnft1e/ehbMd0GudtU0Vy4/nR3ZWQdcbhr9+KY69pm2XGCWSkUOprZ5KvDq9h6F5bZHvTKt+nFR1ZqxB39jHydV/M3IYf0oLDGP5wpOk/DxUhXoftt6hOr0seIyTsmV0lGr3UjW/mNAPzKsdFTtraRHqdjrF/PYiy32MQ8AAPaSzxw8ePAX7j0AbJ4ejds8B7l2wV09mec66+dbhx7LhVKkVRnmmNcD5zWovz8AAGgq1EwD2IPGJdNbq4HHdjvXJ3l9lbQKsf3V14T6aQAA9iaCaQB7zvC1QUmrEKhWA4/tFuN3gn2ytc31b95ddM28v5+2Vtv+6gAAYCcimAawZ+gASPd3DfdHhpVbC/bJ1q/N9m/eTfRo6v5+2vpV6/7qAABg56HPNAAAAAAACVEzDQAAAABAQgTTAAAAAAAkRDANAAAAAEBCBNMAAAAAACREMA0AAAAAQEIE0wAAAAAAJEQwDQAAAABAQgTTAAAAAAAkRDANAAAAAEBCBNMAAAAAACREMA0AAAAAQEIE0wAAAAAAJEQwDQAAAABAQgTTAAAAAAAkRDANAAAAAEBCBNMAAAAAACT0mYMHD/7Cvd+yffv2uXcAAAAAAOxeNQ2mAQAAAADYC2jmDQAAAABAQgTTAAAAAAAkRDANAAAAAEBCBNMAAAAAACREMA0AAAAAQEIE0wAAAAAAJEQwDQAAAABAQgTTAAAAAAAkRDANAAAAAEBCBNMAAAAAACREMA0AAAAAQEIE0wAAAAAAJEQwDQAAAABAQgTTAAAAAAAkRDANAAAAAEBCBNMAAAAAACREMA0AAAAAQEIE0wAAAAAAJEQwDQAAAABAQrswmB6XmeVlWV6eUe9gtcvR187L6efb3Wdgbxq/o/KGxSkZdp93L5sPzlx0HxMhD21eW9mvO9/wtcUdef7unXxnl7g4o/K/RZkacp93s6EpWdzDeUotmPP7DlfLvazGwbRXCAu+7i9+ILcunVQh3R5z4KiMTs7I4kf3i+nx4L4szk3Ky26Shjj7bbn89ZPy8p/+OYVj1JS5iPjOdf1avFaLIuN2BHRumTW6KJqCf83So5FGZKCjQ7IP0zK449a9/rz9ujMKn8MytVj/88imSXMEH/ED19qe76gP73wrv5/cMd5s+7EpglTv/I94bUN6bfamUv3KGUBt1K9memNDNn6mXhsiLalW6XrhvNxSB/9OD6gz56ZkZm5RPviPVU7kAyoTy16W4f60pPa12LTQL2mR1Bf2NzYd/mFd1j9V/66vSs5+A2yNKyhkWudkTAVeHd7rwpxI72gNamEaH9CN38lI+mFWOg6PuG+2ZuJ4t0uPTANvCGyWV+iyAZEuvGQ683LvvQn393raSbWt45LpXZOs2q9tx3ZAzf3FjPStZ2Vsvk0yEYVnU0jdVKE6uM/0sT42L9L3ShPXvro8y95Y0Md7Rtrmx2p2vqPOOjPUnm6Wvq75r9P6VdfjvlZ5up1PRkLrf52SLJpLnYLpvMz9hyflyafU68kOGVIHvoqpJdV7Uk4/Y6fYqXqe6ZP0F1LS8ln3RRm9r52Uvlb15tMVufkHz9q00K/Dr8rEh2t2okaZHJKnH1cZ0NND0oiiMXY5XSg92ycpfYHuPhE8piZPSHdHVnKpPhnd4p3vhgZ0F2fsjYFaFjAK6bQgzV1c14HFqLTd1gWVaWk7uyj739bvu+XEpJsEhr7hItcHZEQd51fKBKjNQxVEj4lk1TE9cfyKzLXWNxjRAXV2vU9ObXON0chhdeyG8yWdFmfbZNoUxEUyy6dEXu+Q7uNcEXeGnOQeiqR3wg0sj7kWdsjAGfcZZc7N8oavDUpa7XudhwWcGeDcRVNpSJ/p2TNZ+WFev2uXzn7z1a7X1fqoffP3H8qlWyv2vfbJTRn73RNNXrgGyhv/sgoQoy5wBSMyoO8cdw5uqdmnufA2KKAb/jjixsBWucJU09d8DaVlVQUWttCnWwRckdUnmrZ+cRsNS+7tYuHYtDx4O9fENbHqHO1Qgb/5MCEnujsk+3F911afs1fecx+ayUWRBS8tVEGcG0U7z8Lbc5JXodVe7nqibzDvpebN6baUSH6NFpVoeg0fgKzl8/r/fU0Kv3ZSrt6xfYq9u+btx8/Lje8vyv0Htm+E6Wf8/SkZDQ+g9dRJuTztm27xrkx+7ZfdHz3essJNToLNGgu8fs733Tz16/5dufpN16y1006W0k1Z9d/K1EzcXnW1zwf65Rtf77LvyzmgtuPdD2TRv73Tl+XkU+7vXvM03XT2+FWZ+UhPNyPjZ2+56W/JqJvU6pWr37fzunu5N/h7N4XW/vyoTN7xpZ963f/eVTnq/l51vbAHjUuPPgeq1baeWVAXwJQces4ecbbfW0StQslAL8XztfAKHbdmXuY72wSsMF2iWkK3HPebiUlfGO3Ol0q1eIV+fN7Lv45mm3x/U6/gvIpN4ILzidHn1KxbsSl2+WUUVVvG8HODkjnrn9cp2f9xOD3070L7xqVdpfnbv5XfLrsNGVVE1rVOwfl66VSct/9vfqXTbbrAWbLv/OueDqWTen057bsBU26/xlufQpNrL7+u8tuqx84TGRn1zUe/Mk+4tXXbaa5nnRn393i1fpX2mf7b6Cv9hXPBrKM+N0LbZI/V0PEUOs/j8s4DL53M5/C8Pt4vg95yIpbViPUsFZHXRR7fbv3809W5D3xTMq1B8qrsdapsfhIUN18IT1c+bb1jzXuVy3MNdywFpinJX5p0P1a9hilltqVa/lB6/pQ/D0YWVBid6pNMpXR2qua5VbepmH8X9rP/fCz5fUSeGzPvxu7TmGD6QLs8+jn9Ji9rPzLfFLQdOy1HOlvcJxXgfW1Kbv3xSenZn5KWf1qR3IOcrG+0SGp/nwxfuiFXX3QT6hPwL87L0cfVdLIh6w9zkvt5m/S/dmTz/ZH9/ZzVKuVX1TwfrKi1/mX5vKzadfmZm/Yndt1yOV+ts8/KmazMrut3Kel77Zbc//4NGf9qRFCtl/nXajueahX5sV6eev1E/erxo3J+YlIybjKrTTJ/eETS+9zHC9OyoNfnkS7pPWu/Mp75inxxv/r30yWZ/ea8/S5Ep/ONS8PS36nTLy8rermreZHPfV4tRUm0Xtgzhvab4yO3UK22NSdr6nBKtelLagIXM3Joacz2izKvMk3G9XfLPbLgTXdhTvIqKIh/8ZqQ2SW1gp09JYUZU/Oen5NsmeZ5+qI9qvvNFtZxTObMua6p8+aI+P7WIWOqAJg+Vnrh1QWNU3KlMF32ocorzsYrXB16ZVl6FsLLKC3wVF/GuGS67gX6vUevh/7ONo0105mWByq9F1VatE1X+W15tvWB2sfqfe66m7eryddN/MT7Tr+i9rEp4Li+r77pTL/9MoFJOaYwdixdXA/1GpsvdsmJtT5K25HFQJrrtNI3X2MdmzqwfUXkSui3yfdrlePQ1M7q36n3hf6UXi12ZZX2WSR9rvq2SS9Tr8dioWuBm98muoboQq/uCjJ3oUKTbX2MnO2TtcK+U+erqGWFC/V1XM8SptA9avqz2/m6eev9H1ovvY2jvWK20ZvW7Lc9yHRXyKtjvVrf/Lj5gtkPoel0NwCVDwSp80kFfIExQtS5GZXnlqXX6VjbDtiPMa5hFbYlWf6gA1h1HqgzsngNsr81VD5lz0MVnFa4iWXPEd812e3rYp4b/7qs8+/CtbVwLap8bTBi5t3YneoeTHc997Jc/YuMdD2iPqwvyM3v2O+tlKT3/1Run3/eHHwDZ16Wb35dNyFVgazK3J79jWdlYHBAnn5qSJ1QGypobJUj//a8CZZ7L5+UvsfUm58tyVsvPSlPHx6Qgb4BefVv1lRwuDmZs79v+znref6+ujj/lprn4LPS/eTTcuK1EXlRrcv3fmynzf+Xt8y6Dbz0hv2ixIQMZV6VifkV0f3FW/b3SObcLVuze8BOoQ2PnTLbsfLOkFueej19zgbirb2Sec1OZ6TS0v6T23LuS/pk1QWfN+R79/XcVWbz66fNv1rvv/mivaHwYF7OfWK+CsnI+d/rk1a1TzZ+9JYMPd4tz+rl/la3PPn0CVPTkmi9gFop6Qs1Ill10ZPW/aELqS5A+wr/kydkWl10U13FWrFqJo5Pq4t2uNmgrXnPL836ahyDTNOzQM38hJw4bM8b8747GJTY5aSk7Qn3hUcFMf5tHXHNGHuqXnzV8pfGAn3xTH9VXeg4EipwVF3GiAx0e+tu2WnaZH+okJGfv1JsGnsmqwq1ak1SqgDjKyiF52+aQm+ySa3+baC/obePCzdodAEpba4VgWNGN683wX6CbgaqUH2qN2UKS8F0HSise/X1sVLr08H1Uce0LrilYg1El5Osf3+4dE73hH5Zdb8mOA7rTp2rrxe3ya5rSqVT1pee7jyPuLlVTjGQrnR82WNEp1dxWSptXlfroILiYI1XfdYzirlhp29iBIIMdS7qGzT+9VJBS9Q2jqjyjv+Xe0dx35Xvmx8/X/D2Q9T5GqAH8ksFj49CoBfOc8sY3t+mDrF7Mrsd+1EHer4aU/0qH+RVzztqtS1m0M+8CqQD1yB1HvivKTo41/tN38TS6x4OqlXePaiu2Tk9loX7Su9r24rBy3Pj54c6/w7k8zGuDVbMvBu7Up2CaX2X3J6wt948LUcOqPB2Qx1ooyoodlN41uffkJe+s2Q/fLXX1rp+uiRZlbkV63xnZeT6D9WFTXm8R06qf770q7b+ef1v35RzhT5aK3Lz9Lw6pDfjqAz+mo6kVTn1xv/km+cW6P7Rx5+VgT94Q24/sJmzqdn9a5UZmID6pPT/qr51INL+wqQvoxuXfrMqeuRv82dnXebfeEne+sh9VN7Izqtv1ZSP94oNp3vlK7+m02ZDFm6PmW9KvDAoXXr+Op1fVgGy/dYn6XoBtVVoZqVeo+pCpiIWFSr4hC7kWs5WhQenq2hEFsIB+MUe9fucTPsLVyFmORE1kgGmxsPbBtvkrW1/cPqS2v3JVdH3usPTlYoelC1q+2Mvw9TkuPXVg6aVFDLCy5yQVZ3x1L0/myoY+5oAmmbJ3o2VoX45pAq4kQPUhboZVDP83CE1dU4W/IWoSBXWx4lqtTFhuv2U3qAoUdJ9wqVztWWU268xjsO6C5+rbl3za5s/ctLXFmME0oo7RubejpFedVjPaPaGXWTrnslZuadOY68APt6j9lhEXreneTexyt2cip0vlN8P9nwtMvvh4XTJsZbkmmPmmbRVQ+D8tflNoYuheUU0NY6ib9x4NabuFQgYo1TIOza1LSWq37guOGNb0hSD6mIrHJN3R7Qki8xzY+SH4fM99rUhZt6N3al+NdPm0Vi2+fDC7Tfk1cEBGSkJUPPyd3/rC6+9EbJ//lNzEQv4M3thk0dUIKf/ddP+9L/dtG+2rE1+yVRp5+WnK9FNtzdr5dYleWmwW579o9uyoh9R9VifnHytV71RCzTbsSG52Zty853S1+0f6L87+b+TuRvuvefGtCzpE3Zfl/Tq2mKviff6vGS/pSeI8Ngv2dp7lc4rkTXXCdcLe4crYFa/25oWO3ZIsoKo1+/J/yiMklqCGrJ9sg5Jv1dTYQpNlfuDm9pW14TLXJQDd8pd/7uzh+ReoQmcr9las/EKF3rUZ5fepvmy+/N2sjdURgPN/gPNIp9os9eCGogz0E3V9WkqO+w4TEIVpjO9qWBLiXLMMVK8uV982YL0tnBdZaoblv365vX6avVgY48ZOayP5XT0aPpx84Wk+yGidtfc6I1LB4Sua4j9fYzuMLo23eU1Xn6ja9y9z/UZSC9G3rGZbQlz6b+2muDoNkF1cN+bvNurtfa/Ak314+eH4fVhEDTEUadgOu8ejWWbD7/40iW5GRm0KTq4DPvco6WZ3NdcxqcCdB07elr26aDU55lHbaBY1aPyy5GPt0rJo/+De1tjK9deknmXDo+2+vtPt8jGJ5fk1dOvlrwuhYPnEll58wc6+G+Rrt6XC02815emS1oBlIhK54CtrBd2J1ubW7WZo6nhLdYOhO/0R1KBndecqmIfzFoyTbGq11SU8O6U6wuy7055odnado0WnOiiPyxTr7jmpjH7yzZMoXlrhb6wH6/VLOg3NUyVxFmfqtZktUHHxLYfh/Wkt8vdzKraD90cI3a/FQOQ4mvz+3IL3A3J6lzNFiJ4T4yIeNxb3Hwh6X6IqN21rwR5ZyE4HlPXHRUQxq1ZbqDYecdWtyV2+ocFu1qYvNusr3+feC+7DVvJD6teGwClMQOQxTU5Lzk3oFZGXSRtQ26tX8aP/Ya527jxyYIJEr0DvP2Zl12Taa1dhl/q9f1Ouy3/+BP7rj19uvC3/otHpMsbyMuYkPkHtv9x1wtT8vIWR6wevnpLps5lJDDk2HOqsK5rjZWNn+tsZEJ+tGo/dx39hm87lKdelsmrwTG6y5n/yw9Nk/iWx39bTpsm3isyP1khlA6k88vBdTRqs17Ynbz+meUfUTIuM/qucEmzuNJmrqYmuKJh6e9KcPc/MTsQmW7qPa6faakuuOUGHovm+jlGbFuBubFQS1HNl1061aAWyzZra0b2ZkeBKYyVacoduplTjW22WGyhEE9ofZyoVhu2ue42127U/DjcRvpmVpyAutIxsm3s4IyRrXtME2U1hbuhZ8o5W+yfvWupY8D0WT52Sg65r4zY+UL5/RC+LtV+P+g+vLpmdDvGMNiEinnHZrelwnkQh8tPN5d3KzHzw03PH3tKcwXT8oZcupUTHdLqi+TdH96VmekZ+eCjScnoEb83cvLuN8dM4DhxdVpyZkLdb2NR7qrp9PSjv6rOMT2rghX5q//NNttu+fWXZWZuRma+vyiTR9tkwxuZ23njf37XzvOxPjn9Xf04LjXt9F1ZvP9B4Y6bF8Snek/LB3fUun23TEaQape+r47LrQf35f5H9rX8ZkbSutpcbcf3vmObp499U2VCbpnedszc+UDuf/e09KdjFmnf/yv5UNd4p3qkR/dl/tGsXHrf/KWMN+TK33jpfFpu3XfL1Y8j+8A2Wa3JemF30nekvWbO4WZ2ptmwuwvsr112fdUCo7Ca2j73XnN3qv0X1+Frp6SvzofbxHv3JK8uloMqGI3Tf2tcnff+rbbBp611NPlD4MLrbizUWPjxMON3Ru0AOeG+oRW5Ghd/IdG1DqgV22y/Wo1FRKHK1C4FC8SmdsG9t2ztVElApY9Bleb+ZsCmiXal/n2mYK6bAwfXdfjajP0ca32cUG2ZTgN9nOdu+wfZqa+4x2FkkGD6z1drtrnFgnAtqH1mB3arFFDbWiw9TbAGc1im7oQGMtqkqsdWCTeIlm4iG/id2kd6vIKHxQHP7OjVutYvuD8KeVCsfbV72ebeKUkFsqy4+YLaD7dt7XZguvB1SbGDVan9EB78Sk1bOK7Mvig/sFchL/G4wH7tY/e5ScTJO6pvS5z8ocJ54D7rc6skPVU66+b1hfzUtS4reYqE2t8zbr9u6bpc7doAKE0WTIvMjw7Ii+dvytKP1cH/WLukH09La0te1j+6Kecyvn7X74/I7124KbmfqIjvkZS0q+ke/dmcTPz7aVMg95t/9ZwdVftTFVB/IS3p1E9l9ptX5N4/uwk876lMOHNObj7Iq0BTP45LTft4u7T8XBWUXe32xOgVmV3VUWaLtHamJfWIfl9q6e68LKyq+fxzi7Tssy/ZyMvKf3bb4QW7apm/9+8nZE5Pqy4KejvSB1Ky8Y9LcnPqLTdRNfNyadYN4vaIWvYP/IO3RZtVGYROZ5N+LW65X2iRjXXX9KYm64VdSx0/pnlXa6gfmRm8SglcuDRXg+vv29SzYAcUKXDT6Iurm0Y//qeefaYNM6CNLpDFrcnUhVu3DeplH8lhm/rZUbX1hdf7u358ly7w1ZJutjotbb5+oJnOnFqH5E3YRg57TfTcvPSjPUxNeyMVC7VmHXRByn/Dxq2bflxJSR9lfRyq9TWPvPG2wT0GqdiEN17zfT1q7Ni8BPrXjnat2cGf4q6Pkrs+JmtHfPNwjzWqOuBPDcU9DgtBgpnGFkbjjBsQuc+2gd5OL6Au9+gcb4wD83gdt0903/e2BVcY35IEXUP8TBNZtT98eZ3ux20e0RTo4qLSuVsfZ8E8JyN2/8TbV7uZa/IbFitfUPR0ofO69LqkqWuT90g1bzr9OqLy/tjndVsgb7GPlkqWZ+s8alNdEwLHmXtVOF+q5x3VtiVm/lDmPBDf+RQ8b9XLPZKrmJ9GnyPLZ9tkwaXVVq/LFa8NgPKZgwcP/sK9B4Aa0CMe65pS91H3NWtUH+hN0nfAzaBnTb6epnbFDKKSPHDes0yatcl03fuFj8uMLgiGHqGys9hzVz9XeeduQwM17NiKwr5qauTVwJ7RdDXTAHY6e6e4MAjIDghQzXMqk9YuoTF0oXS50nNRK9PN8GU+W7tgZ4vr02i2qX3MpsC6z64kHTdg76rFsZVo//ixr5qbGVW8cYMOAtg+BNMA9rTxL/dFPqcSu4Nu4rctozbvRLrZZXctmj/vDdt6bLGvmtiwTB3Z603wgb2DZt4A9iTTtFsPNKMHS9sphVKaDjax3dDMG8Cm6UHIvIGtdkD3JgC1QTANAAAAAEBCNPMGAAAAACAhgmkAAAAAABIimAYAAAAAICGCaQAAAAAAEiKYBgAAAAAgIYJpAAAAAAASIpgGAAAAACAhgmkAAAAAABIimAYAAAAAICGCaQAAAAAAEiKYBgAAAAAgIYJpAPUxNCWLy4syNeQ+b5PxO8uyvDglw+4zAAAAUAsE0wCahgl8myAAj83cMFiWmYvuMwAAAPYMgmkAzeHijGRa52Ts+pr0vUJNMgAAAJobwTSAJjAuM8faZO71EzJxZkCy632S2Qm1vZMnpLujQwbOuM8AAADYMwimATSBERno6JYTk+7T4Q7JfkzdNAAAAJoXwTSARIavLboBvcZlZln3cfZeM+qbaLYvdPnpzDwD81qUfplwf62wzDvllljNsEwt+uZTZl5R6xXoz02faQAAgD2LYBrAJhySU8s9stDRIR3mNSZz+bRkSgLllPSdXZaehdB0gdG1xyXTdU/GCvPqkOxD/bvQvFJ9Mupf5oU5yXdmZPFawhpsEwCPSt96trC8jo6s5NS8gqN+x1wvAAAA7EkE0wCSS4ncuzAgI+6jyISc6FYBqaRlMBTc5ufHfH2K1XS3c+r3h6S/UMM7IgPdJ3z10Oqbt1WgLG2yPzCqd17m/MucPCHTD9Wsuvp9AXB141/uk9RDFUgfLq69WQcdnKuAvdhXO+56AQAAYC8imAaQXP6ezLr+zUU5Wcur4LYt7T5rebn3nj8cVT5eU9+mpO0J99lzcabYnPqsCnjD00QsM2cXqEL4uMalp1P9bsEfSDuTs3JPzS7dE6p3rrZeAAAA2JMIpgFsL9fvePmYSNZrUq1rid2fa2pov7S5t1U1cr0AAACw4xBMA6ip/FrOvYtjWKZecc2uO/zNxutkclXW3NvKGrxeAAAA2HEIpgEkF+jz7Az1y6GUyNpqqFn3Jgw/d0jUrOrANkUvacqtufWPbALu1G+9AAAAsNMQTAPYhJT0vRIc+XpG9yfOz0m2MNhYHBOyuq7+6ewpjpA9NCWneusVsk7IidfnzCjgwUdhufV/mHWDpTV6vQAAALDTEEwDSE4FzWO322TUG5hrOSNp3SQ6NPp1HCOHvcdquXm9InKlnn2TJ09It/coLN/6t82PBUb4bvh6AQAAYEf5zMGDB3/h3gNAVcPXFmVUP395E4EzAAAAsFtQMw0AVYzfWZblRX+zdgAAAOx1BNMAAAAAACREMA0AVYwc7thUf3AAAADsXvSZBgAAAAAgIWqmAQAAAABIiGAaAAAAAICECKYBAAAAAEiIYBoAAAAAgIQIpgEAAAAASIhgGgAAAACAhAimAQAAAABIiGAaAAAAAICECKYBAAAAAEiIYBoAAAAAgIQIpgEAAAAASIhgGgAAAACAhAimAQAAAABIiGAaAAAAAICECKYBAAAAAEiIYBoAAAAAgIQ+c/DgwV+491u2b98+9w4AAAAAgN2rpsE0AAAAAAB7Ac28AQAAAABIiGAaAAAAAICECKYBAAAAAEiIYBoAAAAAgIQIpgEAAAAASIhgGgAAAACAhAimAQAAAABIiGAaAAAAAICECKYBAAAAAEiIYBoAAAAAgIQIpgEAAAAASIhgGgAAAACAhAimAQAAAABIiGAaAAAAAICECKYBAAAAAEiIYBoAAAAAgIQIpgEAAAAASIhgGgAAAACAhAimAQAAAABIiGAaFbTL0dfOy+nn291nYGcbv7Msy4tTMuw+7zTD1xarrr/Zxjvj7tPOZrZ3eUZ2x9YUVd9H4zKzvCwzF93HehiaksXlRZkacp8RQwP2C7bfxRmV73BuxDMsU4u755pTgnwSMdQ4mLYXGjKhLTpwVEYnZ2Txo/sqLXV6qteD+7I4Nykvu0ka4uy35fLXT8rLf/rnu64wi9owQYF3jLrX4rVahKpeXtLIQMotczOFAnPBrdW27yGm0Eq6NT9XYN6JN6LcubkdAbDNH3ffzaBGsjfUKuXLTRrMbeNxV+TSRqdf4FXfMnrNboJu8rq6fTdhG5hPumsnN/aaw96umX5mWK5m78ri/Sa62B1QJ2P2sgz3pyW1r0U2frZhX9IiqS/sl4bWEf/Duqx/qv5dX5Wc/Qaw3EUu0zonYx0d0uG9LsyJ9I7W4GIyIgNqftmHaRlsUKA1ficj6YdZ6Tg84r4pr6RmcfKEdHeMyb2uUXNxq14A3KNcAcCmy7jMHGuTuQsd0n18wv4dTWpCTnSPyZz0yaldcePDF2S4c1Sfs7UumI4ctnlYhnxg6zozBA6bpa9rvuv02LxI39lmD8TUOfpKn8j8WI2uD94N+mJwPn6n1jcVGphPnhmQjus5SR/jZl0z2NvB9OP90vsv2yXV4j43gd7XTkpfq3rz6Yrc/INn5cmnnrSvw6/KxIdrdqJGmRySpx9Xme/TQyqLABwdSJ/tk5S+QHefCB4bJqjMSi7VJ6NbLEDqgDXTmZd77zXg6FNBnrkxECOQLk9fSDtkoWdZRrvumZsMY2uDBNQeHUgfWSumy3KPLHR0y4lJ9/daMDd5YhQu4k4HH318Z2Wt99TOanlm8qQOGTjjPmtD/XJo3QYY9li052zWTKML3bUrZI8cVoXrVgLBrclJ7qHsrMAh6rhrEhPHr8hcXqVnT31Sc+J4tzq3BmQrV1O5mJG+VE6mNxFIRy7/Yo+0qcBcn/PTbaPmnM/ItL3+1PR60MB88kxW7cfGVTigPPpMN5mu1kftm7//UC7dWrHvtU9uytjvntha5gTUwPiXVSCtCjfZsoHniAxcz4l0Dm7pYqJrdTpqHWyVMfxxxI2BTTLr7eZlLupv5+rf5GsHGJeFYLpstbC1FU+0qWMYyekWI1dk1n3asXSg4/IveywWz9naszfZsh+TC2zFwttzkpe9HTjoG8y16RIzIavr7m2TGu9JizxcqN014sxAoYbbli3Ua0s3zytpVD45IbNLeUl19VPG2Gb1D6Zdc1DT7PP583Lrh64fsO4D/O556TcTjcqtB7b5xa2z5ouC3it37fTfuyy95pt+25/4vp3ezOf7UzJaGCTLa761KFNfOyrn312U+27e9394S84/Z6cyzTR17Zr5lJaMnpf/bvSBk3LeNAG3vzW/X7wrU2eP+ppa+5d1Uq7esds2c7FXLn/P/qYk43vmstzV83ug1uWA+87n9qqrfT7QL9/4epd9X45ax8vvfiCLbvtMWkxflpNPub/70/74VZn5SE83I+Nnb7npb6mU9+uVq9+387p7WaW2//duCq39+VGZvFNMV/26/72rctT9vep6YQcbl55O9U+1i9yZBRVup+TQc/bIKduHyTT79dcC+Zpfeq/Q8WfmZb4rNtsyr0Q1wG457jcTk75itDvuI2uSXDPljE6Dzoxbtn+7Itb/y+lgId3M326z7VPpvTZ3Z9ybR0le452/7hVZCPOaXRde/n2hxexHXjKf8LYMy/4jXnq51yZq7CsfR2qeKk+X+Wzx2CxZL/c6lpbcdRvMJzqeQmmqfzdebp0SKR434ePObrO3zPD+sYLT6Fey9al2HAbnPyqjZ0PrkeiYDqWznsbsp+htqyzGvMLnc7llFfat7u7haqwqqLpfQsfe6FnbBaTIrrv+Ls4+Dqar/p39fW2Cqx1g8oRcmVeBQ+wav/CxUS6tIo4h95ew0n3g/hAlfNxpJflR+WXVl8qPW0Xya8EOfOF8JCq9SqdRQW+InSa4beHfha/rQbackVuIKGXEyIPDy49aH8PbH+HrRhlbzSfN32OXXSKOy4i8a+K9e5JPHZL+WOcE6qVxNdOfPSSn/uSktP9sRXKreZFHWiT11Em5+GZG/XFMphc3zGRdv+kP73rlK79mQ9el2UsyrwLp8TtXTX/ilnxOcg/U68cbktrfJ8N/8m0ZDQSnLXLo312Ukwd+KivLK5L/VH3zWJecHJsUvcSVnPrtJ2o9jA1Z1/NSr9WfqI+63/Jfn5eTugn4Z/Oy4pbTkmqXvqHLcuOqnkNQ27HTcqTTay8+L3/1v9la5fAdo95/8+s2GH+wIBOfmK8CVs5kZdbcMUxJ32u35P73b8j4VyOCareOR59SOeKPXVqodU89flTOT9htLGqTzB8ekfQ+9/HCtCz8TP37SJf0+m9ePPMV+eJ+9e+nSzL7zXn7XUj716bkxqVh6e9MqRR2aaP35+c+r5aiJFov7DhD+81+jrzIBeRkTR0WqbbSC21FFzNyaMk2xbKvMk3G9XemmbCb7sKc5FVwG79gae/oSmdPyQXR1Lzn51yTzxDdT0ktL/tQvS/0Q3M1rOYiPyp9rvloYf110F1ScFDn99ll6VnwphszzbUyFQsYpfTFXTeFL+l3rJf5isgVbz2u51QhNFiYNwUD12fZW99N9aXTF/jQfEz6eBKly1YE0yF6+2yen58fCza/jHM86e1Uha616775LR2STO9W67h1IK3SJ5WTrJqnf73Sx5bllFwpLC/7UB83/kKcDcJHe9fMb4vT6RvE0UFZUJzjcFwyrttC+fXQYszLHAuZQnNL87oukjmWMJ/Qajkvn5zev1VqrGLtlyMS2Cf62EsfK90ncfdxcHyKrMgxFfS7KfYK2zxZpc8rVfINE3SEjg1vPA//tST2MRSxD0x/1QR5ZbV8soHG79j8xt+EWueXgXzEpZc/DyyZxowToptjuwnK0EFk+HdzlWrGTTkjJwvha3Bd8uCI62eJGHlb3HwyzrUmSd42uSprav3annCfsS0aF0zvS8lP/2ZIun9rQAZ+q1tGbMQorb82aGo03/hPS2LC6QM9clr/q/mCu/nzK9J7cVQVHFUIpw6wgafVfAb1vJ6Xt36kpmnpkiN/aOuuLRWs52/LUPezarpnpXt0VswSW7tk8AW1vJfUb9+6p04jbUW+p+c1+KKMvCPy8n84LX2Pqa9/ovtQdsuz+m99T8qQyjz1OrY+dzJUq5yS9P6fyu3zz5uDXheG5r85K0t68K7AHSPv5sCGLNw+p5YaZUKGMq/KxPyKWVbL/h7JnLtla3Z9yxweO2XWceUdl6Z6HZ8+ZwPx1l7JvGanM1Jpaf/JbTn3JX1S6oL/G/K9+/bmRfrXC6mtAv0vukB/Xs5FBPrqVJbzv9cnrY+oLfjRWzL0uEsbtT+ffPqEqX1LtF5AmK8pljUiWR0Ate4PFZ70BdDXTHjyhEyrgkmS5k4Tx6fV5TrcbNDeEc8vzQZrk2MwQXjJAGYjMqAvluoCmgkVuoIB3YScuJ0L5ReVFQPpqKbwKjDrtuekYfpWqfPd6yOnLtaDEb/VTV51AS99xCsk2IHgKgUXw/vb1Mbck1nffEYOF/dN0nSpiSrbV3qcVDuedHCULgnCvfltni6ke4G0b/kelW7+82HENXXt8dLM9SsM/9b009VBx5cDxbhI1Y9Dta/8x5Ji16NN9oeO1Wrz8o6FwDmuznnvJkcStZxXYtX2i9727uA+sflNRKE37j4O7AN3/rhPe4dK19fVdqt8o/wAT8VzNXBs6Kb9oe5HsY8hsw9UHvG6P08dCOWVlVXLJ+tK37j01XLaoNC3bJNf6htJvu8KLQEyNhgs5Kn+ddbHeVYd15Wl21SwG2jNpn53OJinBER2w6lXHhxP7fLJateapHmbrbho2x/nKES9NC6Y/tmC3Dxd7EGQ/du/sxeCll+yNZrfysq8Drj2dUmvC7i84G5jcVrG1L9f+hf2royuYTFNpc3rrpz8ovlaHn3MX4OrAtabrxb7LNyYk7+zC5Rf0oFyWSel19UwL72jTgxfUDmrCqQ/1PN4pEt6TtrvPOvzb8hL31lyn5RPzrna9pT8H59x9bEv/L706JsD6/OS/Zb9KpLuH338WRn4gzfk9gN78pia3b9WmbYJqE9K/6/arKb9hUlfJjku/XrwMjPyt/mzsy7zb7wkb33kPipvZOfNzYWWx3vdzQt/oK9TO8ILg9JlBkdbkuzLKkC23/okXS8gmqlVdMfPqL7rnGoL1sKECiVazlaFB6eraEQWQhcxPUhJWl2ckg96UqFZ2uSs3FOrFhzsJWJgtY/X1Lfx7jCnry1WCKSVkmb4ro+cuykx/NwhSUWkoTayEC4kVDahu6bou+1lmqolS5faSLx91Y4nPWCVOgzXVkuPCzPdJnk1RJGBtFKSbqYWolhwKt+vsHzLi6AEx6Gp7XPnpekiFZ6m2rzcjapQ01LNHEOJ1HJeyVXbLwWmhsnLy2xNcniaWPs4v1YasLjp9hwv+PCCvDBzrpYZuDLQ/ah83hQ+hux5Vtr0P8k1p3I+WUbg+LHdi3T5t3Aexmp9oqjAzNZw6ptsKs8NDeRm88vS1lg2HWwwWD5PtcFcJSadwrWv1YSP+TrlwfHUMJ+sWnZJmrc1f//3vaBxwfQ//3f5qXtr6FrbgKxML5nwTrqe0eGdF9ypQDD7hvpX+az9Z/3Dm3LzndLXu3d9wawKCv97YIFxqUDaLCcvP/0H84VP8aBt+bz918rL3/1t1r0v8gLW1q5B07z56O90iY4p15em1dZWt3Lrkrw02C3P/tFtWdHp9VifnHxN175767ghudnotLj9A/13J/93MnfDvffcmBaT3N7NC68VQKVA/7Ff0ksW+flPZSWy5jrhemHncQW46gFQWvTN6KgLQiVen6OMOkO85k31rGkKB1abHvTENX9vCF2b25uS/PyV6EA6BlNTUCtnBgpN1WwhwldQa2S6+NR0+zRTU5KXtY/d51pQ6aULx4HaoERsv8e68wr0x3zNljdTK+qOhajCcGK1nFdduP6OZw/JvUKz3uo1eKXcPl5fDdR47XUjh3VapqMfORZ3cMHYeZPbB6HaXf0yN3rjqpRPlqNr071zTr10DayuIfU+Jx+g06tJDqadyS91oB/aPj22hGcreaoZ5M91NTLz3Uz3nnrkwbXUjPkkGqZxwXQM2ckF0/RZ15a+XAjulmQ6HAj+dE5ePf1qyevcn0X3892clDz6P7i3BV7hZUPyPzZfFJXcHFBuvCnzOujUTctfPCr/+tf0j1dkfjJOKF20cu0lOx/lUTWvohbZ+ORSZFpcCqdZiay8+QOT2tLV+3KhFUCsQP9zj1a5CG1lvdDcbG1u1RovU8NbvJsbq7ZIXYxOqcJJnD6LNWOaP1evqaiqkbVE+TkZcwWTRHf6fWp+J79Q6HN9ybwakxqnS6zjSKl/TUUNPMyaG0WJ+l0GNKJGYtg869U00y9Te77jmBql+jLPrNfnaYOeRrD3jLgnRkQ8cizu/o2dN7nzrFC7G34lOC/K5ZMN5bpO+Zq7m/zSHK/hbdMvewxvOU/VNxPM/FQwbwL3KjcTErUyqyzudWPztjOfbNBNVVTUVMG0vP8f5UMdNO5Ly2+/ZoO7lfk3C8Hd3H+1JYfW3mEZd6NyGweOyvk3L0uo5XUCLfLLhf7IEzL/wPYn7nrBa1Zt9V/MyG/om3MbOVn4a/tdZd5AZK3SlfmKbSL9o1m59L75Y6Thq7dk6lxGAkOOPacK+frGgrLxc50pTMiPVu3nrqPfCKyjPPWyTF4NjtFdzvxffuhuXvy2nDatAKoE+pPzknMDl2WuvRxcR6M264Xm5vXpK/+IknGZ0Xe0S5rFlfaxNDXBFQ1Lf9fm74hXV3y0xPi1QVMAjhx4rCrb1C2yxt41T9tUkF6OLphsIaA2hYsyTblts9LoJtLVeTUfXtO2eqRL9eOo5tsXGp2+aGvHp66x2UpAbQq4kTe23HptppVFDKbJp3sfW4Vm/dXzgZAtz6u0eeamtikJc4MxqQrN9Tc1v11E5YGmz/KxU3LIfWWYIDnqXFUCN3nL503hY6j8ebZZ4XyyscIDuVXKLz1lp3H5eHxef//SfLwg6obIlvPgzZQ/tqaR+SQ12duruYLpQvCZkp6nVHAXGlX65oU3ZU6Ptt2SlszV+/LBnRmZmb4ri3dUIP2vfkU3Mk7mPe/OZLscffeuzHx/RibVyfbG6+9KTsfTj+n+LYtyd1otZ+6+TKoAoUU3Yb55ScYimzmX8gYia/2XPaaJ99IPJsoMPOboEcO/Oi63HtyX+x/Z1/KbGUnrjVNB/Pe+c9NMNvZNlRGH1/HOB3L/u6elPx3z9H3/r+zNi1SP9Oi+zFUCfZUycuVv7CBsqd7Tcuu+W+73F+X+BzZTrsl6obnpu+tek61wMzvT1MnVyvhrl92FMDAK68UZ08y1IKIJ+fC1U1JtpNCt8h4tMaguyHEHHistXKnCkR4YRzfhC6TJuMzoflMPs4FBU2pCFSZ1ILapgNoURNX+iHh0h+mLXRhoxzVXrdDPb/jaTLB2xRVYbXO8GqdLnONIi719cdnaHJ3W/qA36vg0/f0rpFeYN4DOZgJqWyjWNVzBWp5CX+wtt/BwtXL+Y921IElOHQt60B51LASO16j9Z/odVqq5SjCvMK+w6u83uultimbyh0Dg4W4wboI3UGJ45ODNzm83sc29U5IK7Dpba12SL+prk0qzYveY+MdQ9D5Q1LSFc9Ycs+XP4cr5ZKO5bdddhvT6uhZaJSNPqzSb8dImchpXI+s+lTOuyur++dogc01Wy93QNGUB/4B+Wvw8uETc68ambVM+qbkxApq2+fse0WTBtG8U7EfUK/z4qE/UQfZvz8nNB3nZUGFta2da0o+3S8s/5WT2RlZuu8li+2RExr6zZB6bpYPY9BceFfln9f59lRln1HI+WldZXUraH1fL+UKL5H+8JDfPv6gKfwkexV4YiEz52YJMn68YSsvS3XlZWFXb988t0rLPvmQjLyv/+aacywzIiBfsvjciv/fvJ2ROT+ut44GUbPyjWsept9xE1czLpVnXz1yld9VAX5lVhdQXz9+U3E/UNrUU02Zj3d2YqMl6oemp48A0VWsN9SMzA24oJXew3d1of7+sngVTu1rkptGBl5tGPzKmnn2mDTOgjS6QlRm0JkKhcGXW0xUUTBM+VbjzrX/h8Sx1arbu1WyaGxsJ+6GNHNb90e2jsLz1tY8vSdo0tS0wD/v4F988apoucY4jq3bbZ/lrkb35lR6fm+sqoNfVC6iTBOKm4NWtf+sdi/ZlH+FTm+aGdmRw3/z1I9c20xdQ0/mGdyPOm1/E/jM1MNVq1WPOq5ROMx2E1WibItgbJDrwcPM3j8LRy9wMdcwXmsbWYn67iWuyHKaPDbU/zaOwvDRT1yb9SKXwCMnxjiG9D9R5IP59oF5HVH4S+2ZglXwyBp1PBNZ/K7wnPJibStH5yPLZNlkoLE9PE8oLlk+JvK6/c5OUFZyvzYcr5U+2O1m4djZeHhwl/nVjs7Yjn9TKDwyHRvrMwYMHf+Heoy7a5fR3Z+TlX2+R9dkReXooWX9pYOcZdo/7cR91P6JG9YHeJPOYKT3oWZOvJ5qPeYaqfr6ofiyKrv1SBdDp3dK/uFF0rZ4ZuEenm80/2m4Hn7kdW2Beu5luNZIRUQFizVu9YOtMXqAHoNvczbs9L8F5HMiD3Xe7Ukma2Lzy0FLoMXBouKarmd51nhuVoyqQFlmXhVsE0tgL7F3uwgAmzR6gqkKPecZmLfs0o4nYpuqBJnM14/rrudGWdS2BzGcJpBMyNdHeo3B0s0XZ7NgFoXntZtvaTBhVmdGnKzRlRmWm5rzS2CyeYB68m5Xkbe4Z9Mkf5YlaI5iuk+HJGbmr+wpfPWIGUsu//6a89I79G4DmMf7lvshnbAJ+43dKR94N903WzRCpIShP1yCF+5SW9GPX3QJi1DDFmtduoGs4w03/9XeB/r9oLsMydSRGVwVUMGHG29BN9b0boXHy4N0gVt5maqnTW3i0ImqJZt51og988wzCjbzk/uaS/N7pt6r2RwbQOKZptx7QQw+Wttubh2HLCnm6H8dOMq4AGKQKwptpkl3LeTU125y7ZEtp3t18/MfkDujetNPsmTx4z+RtuwfBNAAAAAAACdHMGwAAAACAhAimAQAAAABIiGAaAAAAAICECKYBAAAAAEiIYBoAAAAAgIQIpgEAAAAASIhgGgAAAACAhAimAQAAAABIiGAaAAAAAICECKYBAAAAAEiIYBoAAAAAgIQIpgHsMuMys7wsMxfdRwAAAKAOCKYB7G1DU7Kogu/Fa8Pui1LD1xZleXlGhekAAACARTANIKEmqvk1gfCiTA25z5sxeUK6L8yJ9J7a2nwAAACwpxBMA4AOqK+vSd8rU1KonzaBuq2NnjjeLR0dAzJi/wIAAAAQTAOAcWZAOl6fdR+UJ9ok5d4CAAAAYZ85ePDgL9x7AKho/M6yZDrdB8/DrHQc1nW2uvl3RtL2W6vwN8v8XtR3Cz2yfMybMi9zF7rlxGTo96HfBg3L1OKo9IWi3fz8mHQfT5v5yPUOye5flNFebyJvOe6j5+KMb12CcmoeA2dsn+nR3jXJUjsNAAAAh5ppALGNHO6Qjo6s5NR7HWh2dKiXC3iHrw2aANZ8p18X5iTfmSkd2Et9t9yz4KYbk7l8SvpeWZTF5UFZu1DltwUTcqLbTWeCZPu77uMT7u8i6WPLckquuOWowPqhWs7Z4CBiOrhfPtZW+L1+jc3nzd90YK4DaQAAACAKwTSAmtD9igPB5+QJmX4okmoL1/rmJFuocVZB8W0VmqdSIvNXirXG3m+7+ot9mJN6mA0E1yNv68A7LT3ewGlDUzLYWVpbrbcju9VlAwAAYNcjmAZQQ7r59bIsL9uXaRLeuj8YlD5cCDaV/nhNBbkia6vFwLcWcguhBtmTq7Km/mnbb9dm+LlDksrfk9lws29lZEEH+Iekn9G9AQAAUAbBNICaME2ml0fl0NKYr2m1+2MTSrcxvBgAAAA2j2AawNZdnJGMaTId7LfczHJrtm80AAAAsBkE0wDqZFx6wiN/N5GJ1bWyTbnHe9IiZZqAAwAAABrBNICEcqIrddM9vnGxTb/nlBx6rtg7evxO6DFZ9WD6QQeXG9uZATfC96JM+QJq/RgsU8v++gnZGXXsAAAA2A4E0wASciNw60dc6YHG7qigevKEdF/PSap3tDD4WM9CI/pMj0h2XoXxbrnlH6UVTT/qa2xeVEBdHDTNPk864nnUAAAAgM9nDh48+Av3HgAAAAAAxEDNNIDaGpqSxeVlmfGe5wwAAADsQgTTAAAAAAAkRDNvAAAAAAASomYaAAAAAICECKYBAAAAAEiIYBoAAAAAgIQIpgEAAAAASIhgGgAAAACAhAimAQAAAABIiGAaAAAAAICECKYBAAAAAEiIYBoAAAAAgIQIpgEAAAAASIhgGgAAAACAhAimAQAAAABIiGAaAAAAAICECKYBAAAAAEiIYBoAAAAAgIQIpgEAAAAASIhgGgAAAACAhD5z8ODBX7j3W7Zv3z73DgAAAACA3aumwTQAAAAAAHsBzbwBAAAAAEiIYBoAAAAAgIQIpgEAAAAASIhgGgAAAACAhAimAQAAAABIiGAaAAAAAICECKYBAAAAAEiIYBoAAAAAgIQIpgEAAAAASIhgGgAAAACAhAimAQAAAABIiGAaAAAAAICECKYBAAAAAEiIYBoAAAAAgIQIpgEAAAAASIhgGgAAAACAhAimAQAAAABIiGAaAAAAAICECKYBAAAAAEiIYLrh2uXoa+fl9PPt7jOARhm/syzLi1My7D7vJGbd74y7TzvVuMwsL8vMRfcRdTIsU4s7/XjhWME2uTgjy8uLMjXkPqOC3ZDXVDA0JYscCzW1O8oyQXULpru+Oi5Tdxbl/gOVaOqCaF73F+WD7Kj0umka6sBRGZ2ckcWP7hfX58F9WZyblJfdJA1x9tty+esn5eU//XNVVAB2NpMpeueTey1eq0WoagvSy8szDTxP3DJrlsnb+ZVLDy/tapNeIaYwSCDSzOz+r3R8Vz5+NqfWx3iTccd9Xc6pgnrsl7Bdvp8SGL62aPZp+bRo0mDOBGHbnQe7tNHpF3jVNzi0+6wG126XhknPtYrLd/OsT9nCpfcOvWHflGIcA4H9vU1lnzoE013y8uQHcuNcRvo6U9LyiPpqY0P/T6QlJa2Pf1FNURuZc1MyM6cC9P9Y5bA9oA7w7GUZ7k9Lal+LbPxMrY9+SYukvrBfGlpH/A/rsv6p+nd9VXL2G2DncRlcpnVOxjo6pMN7XZgT6R2twcVkRAbU/LIP0zJY10Jr0fidjKQfZqXj8Ij7pr5GDrv06uqv/YX3zIB0XM9J+lg9CgzxmAschYqy9P7Xx3emoUGAPq+ykuvMNNWNltocK+o6f6RN5i5kZa33VP2ChYs9klZX7+njE+6L2mt0XrQjNNkxu6PoY8l3nR6bF+k72+w3W9X5/EqfyPyYdNfyXJs8Id2ubNFT8+2fkBPdYzInfXKqQeWWUvZGXFPsW1NO3OKNG72/TLkyZp6+TWWfmgfTw//xmpzub1Vh6oaszL8lI19SJ++TT8qTT3bIs38wIXMP/0n9pTZ6numT9BdUwP5Z90UZva+dlL5W9ebTFbn5B8/Kk0+p9dGvw6/KxIdrdqJGmRySpx9XafL0kDrtgB1IZ5Bn+ySlL9DdJ4LHsblQqcJ6qk9Gtxgk6Jq7TGde7r3XgDPl4oy9MVDTwqu9IVC2IODSUZZm65MXqIvK2Hxbg4M1lKOP5/Dd9ZHDquDVGgwSitNVOX42Tc1XFU7atvFGSz0MXzslh5auyIlJtX3X16TvlfrcyBnvSavgZEGlYp3UJS/a6XKSeyjbenMwMRe0DZxxn5vIxPErMpdX6dlTn9ScON6tgvaBrZ0jFzPSl9rcTatqy7dli5ws1GXf6IC6zjf09hp9LoXzdBOo2/ygZH+fyarju3EVMVptg+lnLsvJZ1LqzYbkrr8kzx4/J9mP7J+0lVtjcuJ3X5K33OdG6Wp91L75+w/l0q0V+1775KaM/e6J+l0UgV1o/MsqkFaFm2zZwp4uzOZEOge3dDExNbcd3apw7L6oo+GPI24M1JsrbNU+WCoyF5m3c3UJKlALuuDVIdmPvT00LPv1jd9682567abC3ntXiueSrp14fda+ryVVgBvszMvc2/UrNWxLXrQDLLw9J3lpbAG52UTdkNucCVldd2+bVD1vWtmyxRaD/Yr0jdArUoccaO8K5+lPtKlyaDkTMruUl1Q9Wv2VUdNg+uhXe22T6U9uy7kzVQ4j14f5g0VfH+b7izJz6WSx2bW58+D6Hxy/KjMfuX4O7vtMp50spZuV6unK1MDcXnW1zwf65Rtfr9LI/MBJufzuB7Lo9fXW/aqnL8vJp9zfy63T2Vtu+lsy6ia1euXq9+287l7uDf7eTaG1Pz8qk6E+5ve/d1WOur9XXS+gIcalR5931S5yZxZUuJ2SQ8/Zo7xsHybTv8XfDCiij1foXCk2CXX9Cr1XohpYtxz3m4lJX9HVnaPVmknpgo1/PWcuhvtSlutbGVrvyGkq8PKQsr8Nzf/saKiVgP273j67X7xpo5tjBafRyxuv3EfRrd9or7rU6RYKZeYdZ9mlaez+4Of6SBVfcZqV1ToNyu3r4vGsa0KKtSzB43xU7SP7flT6ZE6umOnKzbNU6fqpgmhA1Lwm1HEfPA80k+b6c9XjTAlNo8/LcbMuMWsQa3isyHOnfNOo9X1Ob6GnuL8Dx5SXt4SOoXLn/vBzhySVvyez5gafnWc4f/LmFZhHrGPUzq94LKhXuXNsL5o8IVfmVQE5do2f2z++V/S5FJ6u/LEbKz/yuGO78nEQ8zypOXvTLr8W7GxYmo+Uplf1vMabJrht4d+VnDcBtpyRW4goZcTIc6KWr5WsQ8L0D+7/avNX192zwfPc/N1sd+iYizzPI45Lc/yUyf8Uu34Z0Xskfcz9rjDv6mWrQt4fOE695cVZZ49blm7BqP7TXQr0b0qOpzjXGP+66LKM9/5YWnLX7Q2RqP098d49yacOSX+svGLrahpM9/0f7C31laW/knnzroLnMpLRfZh/viK5B7oJz7pstKQk/cKofPtsuBdzm2T+8Iik97mPP1k1v1n/mffZzSPnq3X2WTmTlVlzF07t1Nduyf3v35Dxr0YE1bpv9V+fl6NPqe34sZqfnudP1K8ePyrnJyYl4yazQut0YVoW9Po80iW9Z+1XxjNfkS/uV/9+uiSz34xOlfavTcmNS8PSr/uYS15W9HJX8yKf+7xaipJovYA6GtpvjsnIi1xATtbUIZxqK73QVnQxI4eWxqTYv6tMk3FT8O6RBW+6C3OS78yUKSxFsXcupbOn5IJoat7zc5It2wTMXiiC/cWzIsfsRawic2HISNu8bxu9fuYVL06O2sblV0SueL+9njM3E/0FtuFrgyLX3d/d/KPSRl9sT8mVwnTZh/qiF7wg6YvraO+aZL15dYzJvS7d/M5NEMXVuI+pgq+odLRpFGxhUH3ZEWls+kEFC6fm4n9M95N106hXkv6AdUuDMNNn0dWEmAKECprX/f0Y1XFuJsxJNmGtZE3WLyzGcWaOZVVYWvMda2NLhySjA+O4anKsRKSBO6eijvmeheI0eZWPnFpUBbEja4XjTK9L+lh0sKu3LXfb2z+2ubyeR6aQLqrAqQp5eXV+e8174x6jcc/bvcw2T1b7v1oT/rj5rDkXQ9NdF8mofRgULz+qSK9T6DjIPnR/a7DxOyr/CTWhjnMObTav0cFO+HdzlWrGTTkjohn2pvMcu/+C66DTPy2ZCsFpkc5zfHmHXv+8+m0gGFX5Q9e94vFh5l+aV8Uqu8Q+LoNsjbu9luS8NPJaEMYtW+m8v2fBTaO3U59vi2p9BmXNO3ar5k22xZWZTv3nHfOBVngxrjHReae6Vij+PDbS5Kqsqf3W9oT7XGd1GIBMZONnVUNpFQB/KNnzz8uTfQMyMKheh5+WSyaRWqTrN0/aaTyptLT/5Lac0/2vdYHknRF5Uf3mez+2f87/l7fsPF56w35RYkKGMq/KxPyKmHHQ9vdI5twtW7N7wE6hDY+dkr7HVPD9zpB0/5Zbr6fP2UC8tVcyr9npjPA6yRvyvfu2N3j610+bf7Xef/NFW9P+YF7OfWK+CsnI+d/rk9ZHVLr96C0ZerxbntXL/a1uefJpe9FOtF7ATnZmINTseUSyOl9o3R8qPOkM2tdMSxXKp1XBJEmznonj0+qiE242aO+I5yv1Y3Z9uYJBjytYu0/R1AX9iC1oB7ZRBxTqQhKvWXxouaZvkMpzfH3fdNPuwEXGS5vwjQ0V4PnXY8Q1oywMyqIu6KZJqz+d1ZJ1f7BgfcYmVFu2SWO17Nf92zpgCp/pI64AU1i/YPCltz8wXSXbkAbmZo0OrgPdJLzjJ+GgOHXbR9WOs+Kx7D/WvLSvqVj7SBceg/mBrcXMBAuyal6F9fXOC1UO9x9nNl8otqopcAOPBQr4bjleX14dEKfzXssCJcExGvu83dPUsf262v/6JkjZgnz8fNY7FwPTmbEmQjl5nPyoiuH9berC4rVqsEYO+8/bOtKBi1ejp142KPQtO845tIW8Jt2mTrJAazb1u8O+tAyLbMK7hTzHu2aHmnabMSt0sPjlQC4RKbhctf631VYHaj5VHh4oE3h5VZvsD1zXQ2nonee+skvs4zKJ2GUrlU6Fa5O3nWpvzOvxKNzXEeucXJVrTJW8s/qybYVO2/7Nr2ESdQmmWx6JMT72O5fkXRVITmZnzIjc9+/ru0bu9GkJn0brMv/GS/KWr/91Yrp/9PFnZeAP3pDbD+wBaWp2/1plhCagPin9v2qX2/7CpC/jGZd+U+GuR/42f3ZK1+mN7Lz6Vk35eK/YcLpXvvJrOi02ZOH2mPmmxAuD0qXn/+mSZF9WAbL91ifpegE7n7kj6Y512wS0TRVkfUKFEi1nq8KD01U0IgvhTDnGSL2mL1d+rbQAYe6EVjDUL4dUgSxyQLVQs/iySprXu75vJRdEeyfeS0PTJSY0TUnrArf+3sXHNGlV36yG0tm7SG1FtWXb/nLTgYuo5t/HwSa3QSML4YJOtManQYXmi5Ozck/NM8mgQOXTYIv7qNpxZo5lkbXV0mPZ7KMairWPIlqSTJjuXcGCbHhedl2j9m+pcn04bW1pWgbvzMip3mBgnvwYrX7e7nleQT58o8QTO58tfy7aY6coTn5UjZlnVE1gJSqg8DeD1cdDoVujecWpVVX0zTtTs6eDR5XHhAZyi3MObSWvMelUsSYzQvgau4U8p3z/6/It1IIijqeP19S3ETWfplWE2z+umXNgmqplF3dDP9QEXwsfl5tRtWwVTiezndHpviVVrjHJ886wxo4LUNNgej1va2bbnxiu+ripfnXA3TinAsXudmn7VJ00C7dl9mGZcb7zfydzN9z7LVq5dUleGuyWZ//otqzoR1Q91icnX9NPvm4RMaOCb0hu9qbcfKf0dfsH+u9O1DrdmJYlvfP2dUmvri32mnivz0v2W3qCCI/9kl6yyM9/KiuRNdcJ1wuoJ1eQrV7gT4u+GR11QajE63OUkWIT2C3dja0inCmXv+h63ABR66uFAnNsFQfMqB17sRwNNOnaTG2hqU2IumlQdy6NQ7UphYu/Y9avzmqeBq6bRK00Ig0imWM5L2sfu8/byKSBaToZPFZ0n7qa8WpJIgces7Wl0qmW56+9UZLsn1qdt3vByGFdG1rmsXJx89nY52K8/KiqMwOF5rH296Hmv1F0bbo7FrzjQdeQep+TD9Dp1SQH0y7OObSVvEbXJnrNeM18K/aXLmPTeU6DBnX0bnwck0BT+cSlF3dc1jp4bXTZaqu27dq2STUNpi/NLplm1PLFL8k3vlYpnD4tp34nrcLEDVmaHDBNl58//pLMrZUJputg5dpLMu+C10db/f2n1Vp9cklePf1qyetS1YA+K2/+QPfbbpGu3pcLTbzXl6bVX6r43KNVMvatrBdQK7Y2t+qdXFPDW7ybG+uOqroYnVKFE9PXp1GPhTFNi6rXVNSEu8NbVxdnRD9OTPcxCjbp2kncHeVCbUr4ZZvIVauNaKyYNcHuZlStxE+DrbcmaFYmDQr9rcOvpMFGtEq1JLqwbp6Hmy8dHCv2/tkV520jjbgnRkQ8ezpuPhv7XIyXH8VSCI5dn9u4Ncs15Zr3+pq7xzmHtpzf6psJZn4qmDeBe5WbCYlamVXSiBpKmweY7jtJjodG2Y6y1RZt+Xhr1E0Up7bNvL91RW6bADUlff/3G3LjXEb8YWrXi+dl6rtX5aS0SsoM3LUhP/1vbtCwA8OF5sy1Nnz1lkyF1kWeUwVnXWusbPxcZ6kT8qNV+7nr6Ddc02/nqZdl8mpwjO5y5v/yQzHh9OO/LadNE+8VmZ+sEEpPzkvODVyWufZycB2N2qwXUCten8Xyjyixg/CUNosL9x1yNcEVqXyhq553KIuPUBh3/R3LDzymVWgWZm4gVGAKb2WacoduPtSWvUmQVNmmVK65XT2ZC2mVGza22WR0Uy9zXJUNfuJLmgYl/VtLprNBbWTLDjdtkps5ZdNg0+sXU9luCfU+X0tVOg5qIzzwWJB+vrUZzKlb9+VTZR/f4FhbO0Y3d97uGV6f5WOn5JD7yoidz5Y/F8PXpTj5UTJeDXHjBkjyCw/kFuccSprXlOeND1FaHiiIuiGyhTyn/P5zv63YGm3zzE049z62Ct19qpeXkmh8Xp3E1vLOopo3Ty+jxn2mZ+XVVy7ZUfoeaZWer47LreVluf/RfdMn+tafnJS+zs9Li8zJQzN4mDqZX/tAZqZn5O67o/Ibn9PfxefduUj1npYP7szIB98tk9Wl2qVPr8sDtR56XdRr+c2MpHX76o2cfO87N81kY99UmZuuHH9M92tZlLtqvWbufCD3v3ta+tMxD7r3/0o+1DcUUj3So/sy/2hWLr1v/lLGG3Llb3KiF6u349Z9t9zvL8r9D2xGV5P1AmpF3133mmyFm9mZpk7q3NJ3uf13QN2FMDAKq6mNce+1iCbktqDqPtSJ9wiFQXVhqTjwmOMNXBYeydPcQKjI1qbodCsZuVP9Nh9qIroprh+Xv8AxfifGKONRXK19cDRSdwfefapkK0FOdBor6pgp1ESZwrRev2Dtjm7OZmr5/IMFbVbsNPBusvhryqKnMwMo6aaegXNHHT+6f91D3wBZcdR8/eKytVvh0VejzlfTfLlKP9GtHCvRaaCo82omSR/Nctw4CiUjC2uFGh9bG2WaH/sHx4p7jNbyvN1DbHPvlBkfqShuPusGV1LnRGC68HVJiZUfqfe6Ga3/fPAbvjYTrIV2gf32dJVw266OVTMSfZxzaAvXg3FVPvfP1waZFcYqMGWB8GCM8fOcMG9cg0yoNtwb1bw44NZmudpvf8Du8obk4h+X0SJuEm1T2arija1qtnp9Nzd5Gnd+1X4Aso/ekBOZ4zL2zlKhD3XLvhZp+eyGbPwkJ3O3bsttuSkv/dFbsvQT9feWVkl3tIssTchbCzY4jmti9IrMrupltEhrZ1pSj9jlhS3dnZeF1bxs/LNaD70u6iUbeVn5zzflXEZdBL1g970R+b1/PyFzelp1ALQ/npb0gZRs/OOS3Jx6y01Uzbxp7m48opb9gwlTU13JrDpoXjx/U3ImPdxyv9AiG+v2BKjNegE1pI5Z01StNdSPzAy4oZQUjN3daH+/LP34Bd1Ur8BNowMNN41+JE7d+/WYAW10gSxuzbBaz0JTNbct5lEXumBXhU43tY3mES3eb92jPmrSvNN/o8PNX4/curm+l7r2xGuO6G3nKZHX7SA2VRUKX/p3SZsz6jRWyxF/GqvXkbVAywH9KBDvMUPeNPbxJ7Vp3pskDQojNB+rPJ1t6qmOFd9xXniMT+JCXR3WLyY9P31uFucXdb7G7DqxpWNFp4E+xv1poF5n22ShBueUqQWJqrnSwVnJDZDSAn+sY7Sm5+1e4posh8XNZ/V0oXQvvS5p8fKjytoCx4B95E+yfEofSzXrBmDOOZ0f6AAzzjm0letBcL72+K/UHNp2JwvXzsbLc6JEb5991FltmmXbkcF989ePfTI18JsQ+7iMorbVBePmd+ZG5jaVrdRyvfxQLzPRAHTKVq7vlbvm1N5nDh48+Av3HgBqYFimFvUdX/dR9yNq8n46uvbMDMyxpfUclxkVFOlnxSaqXdxx7P7VAyXt3f6dpEE5uuZgVD9vtfuETJiAs02mm7EfYRxm/Q/JvYRBD8Cxs0W6pt8M5lU97wjkOe67XSlBmuxtjb8+175mGsAeZ+8CFwYwafJAWhd6zDM2tzrw2LY222sg10euUX2RmhJpUIbrh+dGu9e1AzKf3bEFP/O81wbWbmAXMaNPx3vsGiKYmvNKY7N4gnnObmb7Cm/16RL6pn/yWuIdxT1XvNIjTmuNYBrAnmYLzNUGHvPRNQ5RfcVr1e+5aaiLbskjTDbZt3fHIg3KGb9T2hw73AdRN8vcyTX3uplhx26v7UIdDMvUkTLdAxDThH3kXG+x73ucPGc30DXt4b73sfsK73Wm9j5dGMeiUWjmDWBPMk279YAeerC0RAVmfWe3dHAg/diJ3RVchZrrO/o5p3unaTNpUI5pWhkeYCfxuQTsIq4gb+yA7k07zZ7Jc/zHUUGO5t1NjGAaAAAAAICEaOYNAAAAAEBCBNMAAAAAACREMA0AAAAAQEIE0wAAAAAAJEQwDQAAAABAQgTTAAAAAAAkRDANAAAAAEBCBNMAAAAAACREMA0AAAAAQEIE0wAAAAAAJEQwDQAAAABAQgTTAHafoSlZXF6UqSH3OZFxmVleluXlGfVu5xm/o9b9TiPW3EunzaYzAADAzkYwDaAuTFCngq2Zi+6LHWNEBjo6JPswLYPXht1328emYzMG9l46peTQc9ufTmHD1xYrppv9OzcCAADA5hFMA6iLkcMd0nE9J+kjU9J8oVbYsEwtFmtZdQCb6czLvfcm3N/rqFItuvrbYGdOsh0DKnStPxNgLlbaX1462ZskDU2nWlLpeqpXZO5Ct5yYdN8BAAAkRDANoD4uzsjysbTkl2aluUMtHSCOStttFfx3TEvb2UXZ/7Z+v92BllqvV/pk7XpjAunq/OmUFTnWLOkUbeJ4t1q3qLTz0pVAGgAAbA3BNID6ODOggpkO6T7e5LWWQ2lZfb1DBs7oD7rp8hVZfaI56tJnC+vVBJo4nZJqqnQFAAA7FsE0gISKTX2916Kvb7Hti+r/e6gJs69Zs9ev2r6q9wsuNkP2Br+q/ttqyxh+blAyZ/3TnJL9HxdvABSWada7OJ3tCx5Ki4pNpMPcb8/2SUr91+fWwUvL8TujMvpKcX5lt73cYGOh9fXvoxJu2tHelEiqT0bNb0L77YmeiumkmbTW6xNj2eHjZPHauE2POIOnheav02XczK+4f+38g/vbfqfStbAdZZrXAwAAxEAwDSAB29S3bz1rap3N68KcrLm/qnBKMl33ZMz7m3rpAar6zoaDWBs89ix4043JXD4tmVjB6CE5tdwjC4VluN+WBMpxlhFzfXWA+YrIlcI0Iulji7JYaPasX1nJ6elij6Q9ISe61e9U+uXVf3MX7Hwq1uSbQNe37fq3nZnSYFV9t+xbX913PdU7Wn4wuMkT0q2mG5vPi+TnXHoUm0GbIPlYW2Ed9WtsXkz6lswzxrL1/EZ71yTrTaP2zb2ujPSpWL4q3X3grG6m7f1WrcvSIcnoGwEVxT02AQAA4iGYBpBAWtpUzJJb8PVEVYHYQCEAHJGB7hOBPtIjb+tgsU32h2oA8/Njvqa2KrC8nVPB4iHpr1ZTqJZ/74K/L6wOSlUgq9YtPPp29WXEXV8V7L5enM5Ok5LUetY3/xHJ6mC0s6eOwZkOun3brtJ+WgX2qa7+0E2InGT923UmK3Nq1dI9m1izIT0Iml5usI+x7pNsbiqUDDBXZdmF+UXtw2qGZepIOrRfi+tSWfxjEwAAIA6CaQAJ5GRNB0bHqjSP1bWHXhNc14y57Qn3NyNiBOiP10yAGpwuQv6ezJYMHGXXK9WWdp+1BMuotr7hZU6umtr4/Fr18K+mIrY9Zzdc/FsuDxd8gao2Iavr6p/W/TFq/oOGnzskqcg0V8HoQsQNkCrLNvNTqbdaZh9WNNQvh1Iia6uh/aqYdIij6rEJAAAQD8E0gARs02TbPNYGJIEmxl5f1mNSbMJrmjE3qZ22vtsgrZsi1JCZX34tRi10hCfaVOibl7WP3eck2NcAAKDGCKYBJGaeIa2DEdcf1g4aNWweOZR6qPtTb8/jnJLVFG//+u4EsWt8mxr7GgAA1B7BNIDNOzNgB62q0HzYNuutoah+1RWa/yZV8/Xd4SZW16LTXBnvSUc2Pa8ksmm45vZhRWcWJKf2zqHnwkfbsPR3Jd9r7GsAALAVBNMAEhiXmcBo1S6IWV+VCa9vrH8ArqEpOVV1lOWkUtLne2SUWSfd9zU/J9lEzw5uwPqa/rlVRos2/a+jAsTGiwyczwy4Zv3BfvL6MVMZPZCYb2C2WMyAZOFRtF3NsftUnh3kLTw6+PC1U1VGAm/UsQkAAPYSgmkAyehHH+m+p+blHpN12DacHTnsPabK/V0/IqnW/VL1o5tut7lnIetXRtK6+W5opOY46r2+pua2ZECusGKAqNeh4vOg660Q6Or0KAbPulm/9ygsm+beo62CI3zHo/vdh9J9+ZTI6/o7N0kFeuRu3Roifay4Lqfkim0hUUFDjk0AALCnfObgwYO/cO8BoKnp2tBR/azgTQTOjTdsnsmtn0Ptf4wTyrHpdWhprPKztsvYWccGAADYDaiZBoB60H2AJWnT8z1sS/3e/d0NAAAAGoNgGgDqYfKEdFNLGmFcZhb9fd411+/9YbZqLf74ndJnnI/fGZW+VE6yrrsBAABAIxBMAwAaKCdr0ufr865fGWmbHyv0va8ktxbsu61fmdY5GeORVwAAoMHoMw0AAAAAQELUTAMAAAAAkBDBNAAAAAAACRFMAwAAAACQEME0AAAAAAAJEUwDAAAAAJAQwTQAAAAAAAkRTAMAAAAAkBDBNAAAAAAACRFMAwAAAACQEME0AAAAAAAJEUwDAAAAAJAQwTQAAAAAAAkRTAMAAAAAkBDBNAAAAAAACRFMAwAAAACQEME0AAAAAAAJfebgwYO/cO+3bN++fe4dAAAAAAC7V02DaQAAAAAA9gKaeQMAAAAAkBDBNAAAAAAACRFMAwAAAACQEME0AAAAAAAJEUwDAAAAAJAQwTQAAAAAAAkRTAMAAAAAkBDBNAAAAAAACRFMAwAAAACQEME0AAAAAAAJEUwDAAAAAJAQwTQAAAAAAAkRTAMAAAAAkBDBNAAAAAAACRFMAwAAAACQEME0AAAAAAAJEUwDAAAAAJAQwTQAAAAAAAkRTAMAAAAAkNCODKaHry3K8vKyLF4bdt/sck+dlPPnTkqX+wigjIszKm9YlKkh97khxmVG5UczF91HFA1NySJpE8LxUmJbzlugDI5HAAnUKZjukpOXbsjdH943Qa95Pbgvi9+/IZe/uoNCQhXEXn73A1m877bB247/dVyOuknq76hMTpyXk189L9f+40n3HbA9xu/4zoXI14wKFVCJTcOdmU7e/q/ZjUxTaCWwjCUyrWxgHm9/2GmX7+yAI4+bMHC8ypPyx+2wTC024XHdFMewSxudfoHXLr1OuzSPs61RZZnofDRJHou9qvbB9IFhmZy7Iedf6JH2x1pEPt2QjZ9tiDzSIqn9PXL0nAqyr5yUdjd503pOnUDZ83L0qVZJqc3Q21Dcjv3S5iarv3VZ+4larmzI2mrOfgVsk5HDHdLR4b2yoo/I/PyY77sBGbGTNo7/Anosrb5ISd/Z5i2I6zTMPkxLZicENSFm/1+YE+nqV8W0rVJ5rNpfuesdMnDGfVWO2cc7sKaoZuudIK3KGL+TkfTDrHQcbvgZCmxdZ4abK5ulz/vCNdpdf+qQn5oAdZuua+amy9lDcu9CcTs7OsZkLu8m8LjyQqZ1TsZ8aWKua72jsrw4VYNrG/aaGgfTvTL+P5+W/i/o6HNd5iZflWcff1KefOpJ6fjtV2Vifl2FhC3S/jun5Rtfa+5w+uV/9yVJq82Q/IJc+lKH2QazHV86J7cf/JOdqCHmZWRQLbfjSRkYnXffASiYPCHd3gXxugnvZU5dUGMFHbq2bxsuniOH1UW+dQcWDnVB5GyfyNKsTLivbOEkeU2HDu7a5sc2HRzuJeXTakQG1HHffbywN6KpfTTYqc6Lt3dIIO3OaY4NWDnJPRRJH9tBNapNfAyPHNY3wlNy6LndEjaOS6Y3Jfn5K3Ji0n1lTMiJbt8Nfnf9SumbC90nitcwzewvlS6pPhndgTe6sb1qG0x//bR86XETgcrcN1+UExduyor9i8gnN2Xs+Isy8aGuZU1J35dPq9C7eZladSW/NC1vfGTeWh+9JS9lXgqehAB2pOH9jWtjEqQv8h2S/XiHFWZcAbFq8FbVsOTersV89oKtp9Xwc4cklb8ns4GCJrBzLLw9p0qWaRncw81tdc1vbZobj8jCQ1USb9MtuXaBIdtadG21ch45/mUVSEtOsmVb54zIgL4h3zlIf3kkUtNgevg302JC0B+9K/+PPyuE0T4rcmlqXtb12wO/Ll95Rr/x+nQsytTXTsrVO7afta2xaZejZ6fkrtfnQ/dXfvd8mSbW/TI6OVPs32z6aE/J6PPFGnCvj8TMRTVt9gPzvlzGlFuzbUNSPRm57JtHlP6RSZnx9Q+/v3hXps4eLTRlL7fco2/a98sfTIb6YJ+WGx/p39yXG1/3/9792en66mW5Nbco9x/Yv5tt/u6o+2v19QLqJ6KvVmQNcMR0se8Kuz6ghVf5WotCv7vQa7RXZO51e4e60ETNNQPzpklSeAkuJ6IZnev36r1Gz44Gz2uzbPs777y3r3j9vmYuJuvf5a1vMG9x+8TtLztNxPK9bdE11fPZ6s37XbraZU3IhC+wK7sMb110bYJrvq+X6W1fYZ8V0tWbR/jYcNP5JNnf4eNn8dq4Xa+yx2rl9fbEO15G1XHiTRPeV3H297D0d6Uk729NoJTb/ujztMq5lui4jXHeBo4Vzf5Gf66aZkry/YWmN3lCrsznJdV7KnKflyrNA6LPkxjHo1Oa37o/RCk5hpVQ/l9pWY0XJ71Kr9dmGrddmU41SWfG/S24baVpZ5dXXEbxHC9M6z9fK+VTk7NyTxXZ00cqtTIblx69fg8XKl+rzizsslp7NEJNg+l0W8r8u/Jfp4s10mHvzMnfmTj1Ufn84+abgrZjp+VIp60R1nrH/lwuDvVJu57tT1Ykt7wm8uRJOdljl1PUr06+qzLcr4L5fE5yD9TrxxuS2t8nw3/ybRk94CZzWnpGZfhftrpP0SauTktOV6K3pOXon96VxemrcjoiqO5XmcjVr/VL+nN5u9wHK7LxuXbpG7oo3z4bnD683Jvfmbfp1Nol//oF85X1Wq907VP/rs9L9lv2qzC93BvnjkrXF1LSsrFul/2PG9Kyz6ZNkvUCau5iRg4t+ftSRzSfMhfHUelb9/fnUtPpi3G1ptfmt7bpa+G310Uyps+0n734j/auSbawDN1nzP41d7072CxML/sVkSuFearLam8o4C0jfWxZTskV3zJ0EOUvUKh1OSKB9RhThcP0sXBAYIOvngVvOt3vKy2ZQJrY7Qr2+8qKHMtIkrqGiePdJi38hZDha6ekL5WTbLgZXCTbpD5WralX4OkJFx+9JnpRAbmtwdf92fJuWXpbA8trHZTFngWXBrZJ3/C1QZHrXrq436t9W1I4jLG/dcEuePyMyb2ujEojN0Gk6utdu+OlmrS0pfJy772IfaTTzr/93nnqP9YizjXb5zIcCMQ4bmOft9Gqp9lm9xd2gonjV9Qxpfb5K1WuDya4Cx1nXp/YkmtQ/OtIIL9VeYU+HuNcGwy9TsfaCnmBfnnXocazgWV+zY3DEyu9dBqErtdqGlUqVwHoQHF7Cv2zvebVya5VbUcWi3mIV4Os1+9sn6wV8nSVt4g/n1L57esqr9V5lwvIS7ja69xCxVBayYmuS9s1tfZoiBr3mbY2fraZvr0pSe//qdw+/7w5WQbOvKyCV1vTvT57Tp79jWdlYPBZ6f7dS7Kkg1yf3oujklFBuB4IaeDpATWdev3W8/LWj9QfW7rkyB8GG5S3H3hUFnR/brWcsoXA90dkIHNObj5wNdSPH5GX/3RG7l4bVaG788y4jL6gA3iVSQw+bZer1vH5a0vqjy3SNTAaaMpestz3/0o+/ET/pVU6nytOefqZLrvd/9//RVSWU+rAqJw+6qXNmDz7lFt2X7c8OagyioTrBdScurgGz60RyapAQFr3FwpBpslVyYBI6rzTAYi6KGYqFFK83waWoZapg40AFdSbwDA0MJrpsxwZ2IWCyDPZMtNFCK3PiGuW2FPYjlD/LWXi+LS5C972hPvCMXlZoa+d+t1tVehJHZJ+L4jytisQ8Lq0c5/iMv3nVHqfMoGmDWxz14PrWRtuO8JN6C72qFQqE+zFkVqT6VCzPX2TINBXcfKETEc2a6yyv1Vh2/Q1vuBPD70fVZq5T5tWw+OlIleIjKTTLuoY8p1/5lxT15Ir/nU1fS5Lm9xWO25jn7flVEuzeu4vNAG1L13QZPOrKPomlMpR1LEYOM50F5VQE95k1xF1XLlWTIaaLnwjshLTpSjU1WLkcD3y2Wp0cKsC2cI5HTe99E25UDCqphnw/yZKwmtVan061M/crp8+9wN5izsOCuUEvb7mBp5a02O29jr2jQ5gi+oSTLc8srmaz/X5N+Sl7+iAT/lqr6R17eynS/Lu0FvFmu6P3pDppeAp+KV/YQtIukbhbqEZyF05+UXztTz6WOhxXA+m5TV/f+5yPnpLXh3slufPZ2Vh1VRTS3vvsFy9M24D6t9RhcBH1L/qhB79nrfcZbnrPf4r9fngs6FLljsvl2bt9rb/2ldcgHtaek2/8xWZ/85N802Jk73SZSNpuTQ0UbodSdcLqBN/065RFaSpaEZdks1fzJ3xyLvEZWswPeV/O7Fq7pMXjPfoi3BUs64JmdX5SGdPoFardNoJWdX9Unw3AcopWZ/JVXPXvm1/6JemNsRLF3t3PjhNRGD58Zr6thhEme3Kr5UGCG6ZyaiCjamRzciMG/E5WJipoYgmdHYfTYcGjkkgKh0MWyPiHX+mCWJ4P1bZ36avsUrR1ZJ1s7UXW1G74yWOqG1Qos6NwHq4c+22vyCsRdXeVDtu45+35VRLs3ruLzQJ78aYyq8irxBD/XKoXEuMQP6T9DpSmkeZ7oCFa1plZp66TOavGa8mcO7bPEyXc73PsZ+FXWh6rV+udtkLbmOnlz2HkraMSXqtKtSWe9z6lQyeGJlf6htnrubarGu5pv1AbdU0mF7P2yrj9ieGy/fLfeY3bLNtfcF7z3zj5OXv/tZXD/tZ9+/Pfxp5wgW4adc/vCk33yl9vXvXBejOyscRAWgFS98ZkRd/60kZ+rMltZYqpO78kpz6unrjreP6QuRyb96aFf+So5a78hcLsvSperP/i7YPudfE+0cqUH5fTxHh8zqSVlQGFVlznXC9gFrz+ixm1BFqm2V1BO/2V6otqyb2b4dlf+XeHA3m+qQFHt+xmRozt13rq6EAZwtMLUta0p25CoOz1IIb+KbwaK0KN1XiikgHexNnNNDVYDNNKk3XpbLBer3V6njZAneueTU9gQJ50mbTWznnY9re/YVG8VpGRD5e8Ik2Ff7FkPQ6EghI7cvcII5L5bFedxP7+3A3iQimttU7920epmuQvc8dHaFuSuU89DXN1i9/Hh83vVygartW2O2vHqgmv1aVDCJm1q+4zOIrupm4ZddVlzkKfexd8F29lZmtgS8J6oEKahpM61pWE05/cVDOv2i+CmmX06/120D7kx/Ju6aJs48OKsM++8vyqHvrefSXXTAZ9tM5efX0qyWvc38WbHa+8WmSULpodvxdU2Oma6hT+81XTl7mIpb76h9NiH/Jkcv95JzMfqRTrV2++GJvoYn30g9iBPypttDAZWHx1guoqaEpOWWaCocu2n5l7krHEvu3rpaxSZjn/OquF3ELQI10cUYynXnJ6z6uoQJq3FrDuEzTXK/pr2ninZOFWtaEu22J3Ze7SdX2eGmT/QlqkzRTqHXnmjmX/YXxqEJ5NVs554EA25pGB7glTXlNa4gYkl5HwgFp4ZWgqXYhOHbjCcStWa6nuOnljBx2221aM4X6oNeDWT+bn5emfeU83usWY2vW7Y3cktZoYVvtdoQ9qbbNvL91Rd59qAPDVun/47ty9Wu9xRrqA0dl9NoNGf51HSqqE+OtVysHdO+5jG5fjxy9VOilLPLcuBz5YjCYnvuvtsTc2jss48+Zt5Za5vk3L8tJ9zGJ8eyMXPavv9L+Nd3cxL7f0I+a/ttVOzJ5a68MX/Sto/rV0T+elMtfdR+r8G5CtHedln7dxPtnCzJ9vkIofetHNtBWyz11KWJ07hqtF1A7dkThItdkLOousWnWVam2svxvTZMyH9MML/Li6dan2sie9WYu3EmVaaKubWp+4zJzTPeZuyLduh9aVAE1IhgLp3Vsphm/LuCMu756MUYC3zJbA57UyIIqsPv7qnvcMdpwm9m/lYKGssdQXtY+1h8qnKeJxT9vN6vp9hfqx+uzfOyUHHJfGeZ4D3YlKQgESrW4jmyWrjnVtesJxz+oh9jpFeL1La/YBaoG16pK6xeTV9vtjbFQ/vFq9lq4pW5H2JNq3Gd6VkaGL8mcjuRa2uXIyDW5++C+3P/ovix/77IM97ZKiwobc9dfrX6gfjIi2ffVSai0vzAp9+dmZObOB3L/6pek7ee2Obnn5oU3Ze4n6k1LWjJX78sHd9S003dl8Y4KpP/Vr5ia3sQeS8tR3/rr192RPnVKK+uz8u4F9e875+RN03S1RWXobh2nZ+TuD+/K5eM98itec+tqvvU9WfqZ+vdAj2nivf6DrLxh/xLt/Uvy1vsmkSX9wmW5u/iBWe6MfkzWtMqyarVewGa4wru/kGJHiHYfDDeAiG7yFrizrS5m+nFCFfvtqt+agaxCozObGkn33rGjv+oagPCIv7qZar2bNAfZ/nX+gr67cG+CveOutiswwnfE/Eyfu8q1H14NqBmMZtI+fiZ9zJdert9cYATdiLSOzxawUl2Dpi9crBqAJAUq10/XP63ZRvc+ETMgmW5i6D9+hmXqFXctqGYLBcHaHS86aCi3DqGWCPp4CRQmy5xryri6zvrPqerin7ebFnt/2f709Kfc2Wxz75SkAjvXGwNiNLh/3bGtbxpWPLYjryNR+a2ipi3ceFTvdfPjcoNeDV+bCebDgZtW2ylueqn8J3CtdjekfU24o246xL5WlWUHL9XrF0xbdQ7fcfPU6xreN/rvbqC1rFeW0C0DytWom2ulaw3UwHIBdofaD0D2icqgMq/KG7eXbB/qR1qkZZ8KZz/dkPzDWZn4gwFVSJ51E1c28ZVXZWJ+RfKfqrDwC2lJ72+RlVtjcuW/BINps8x/a0fe3lABZGunmvbxdmn5p5zM3sjKbTdZEgvvz0nux3Z+ev31ayO/LrnZCXk1M+QyjxWVURyXc+/kRG+qWcfH09KuH0c1m5VsoE94JW9I9gcqONaDhsm6LP1NZE9oH7Xcr7wor07OyYpecKrVLDf9mEj+H3Sdda3WC9gMN1KnDpRd/yb9OJuSEVJNkzdVGPJNV3g8R7WLme5/5l0Uvd/qxyOp74JU3mD6eemA2luG95iOxo6kah9DpQv63nr0yMKm+8CqNNa/1QPaFLardH5mQKbQCLJ+um+xaRLtG6W2tPDj9qd/WZFpHZ9ZhioBV1q3oGKBSi+/YhDkLzC59dWPWtlMn2l7/HhNMr10PiXyuh3gproE6x1Su+PFu3nh9VP3eZiVsbVBN3/1Ms8MD51/rq+neUyON516Da5tokVB7PN2s2Lur0qDLmEHcU+JCIs6Zt2jlcIjd8c7HnV+q44h/Tgmbzr9OrJWDNSqagv2+zWPyUrWhUM3sa5L15W46RW4VruBzHx5ReHaYf7u3dCKd62qROeFep8Ex24YlbaF4nXLDO5W+Jv9e2CgNY/eVr0vW/3bol76Jr7+e1TLFiVwjHivejdxx47xmYMHD/7CvQcA7GjjMrOcMc9Y1jX7OlgeXAs98qQpBNdz59G1HnaAs+ZL2wi61sUMZFYsvJsbKXqAwD1RCxPaX7oWUQVCY+GCNlArEecc/JrxGmDziUIrOt1PnlpqxFD7mmkAKNAXTJpTNkyg6aDuJ5yT6SYM9oavDar1rPHAY1FM0706PG/U9cEtGXm2WU3qxwmlpO/Le7QmJbS/dJ/Y0sd9ATVkRqEu80g6NFEzdz/bkq0wwBmBNGIimAaAnUYHiVF9vgJ93HTzusY2ZY9nXDK9qQYNPLZV4zJT0hdPfVe1X3/zMf1LdTPNXd00Md7+0s1ld2aLCOwMw2ZwxW0f4LIZxLpWATsbzbwBYMfRNf6lg2rpRxg1b5BQXGf9rNQd0Tw63OzP2TnrX97ubOa9e/cXdgDdfcAbWIsmws5OvFYByRBMAwAAAACQEM28AQAAAABIiGAaAAAAAICECKYBAAAAAEiIYBoAAAAAgIQIpgEAAAAASIhgGgAAAACAhAimAQAAAABIiGAaAAAAAICECKYBAAAAAEiIYBoAAAAAgIQIpgEAAAAASIhgGkDtDE3J4vKiTA25zzvWuMwsL8vitWH3efcZv7Msy4tTsv1buD1pbbb/zrj71GQuzsjyrjiPAADY3QimATSeCbqXZeai+wxsggmIl2dUON4A7pht2PIAAEDTI5gGAMTWTDW6I4c7JPswLZlGrM/kCenuGJO5fFp66nETqBCsq9extPoiJX1nueEEAEAzI5gG0HgmMOmQgTPuM7BJI2/PSb5zsAFNoodlanFU+lI5WajHcevOiQ79up5TX+Rl7kLMc0Q3C2+KJvsAAOwtBNMAgJ1rclbu5VNy6Ll6h5ITcqJbB7sDMuK+aRbD+9vcOwAA0EgE0wAS0jV0rjmqe0UNHmX7s3qvUD/Tkj7TdhAq/Xn42qLvd6XzLjQz9jeL1a/Imjk73+L8ovu7Btd1a01rw+sfXma1v/vTIrBe3vaZwamK3wfXNX46RquQXm65mU71vjNT+nclTjrWMq2tCZldykuqq39zNbOh4yiYTjY9StPOnQOmebn/fUjJcR4l3jGqlR479jXaKzL3+gmVEi59I86PePsfAAAkQTANIAHX1HU9a5uj6teFOVlzf7VsX8+eBfd31880E6MZatuRRTklV4rzvp6TVO9oaSDQOiiLr4hc8abryEou1Sej/mWYYCIjbfNjhfmZ/rWBYMUGQpnWORnzzUuOZUT3Wk1KBzImsLngzUsv0/3RLWu0d02yhWV561Q6cnP6mC8NVRrn1fadWlTB1JG1wrqOzefVdKW/jZ2OftXS68yA+069f+jtf6+WNiId1TL1NhQDydqmtd/EqjoCU23J56NvCviPI5dOyQJ8G8xLZ09JEDz+5T5J5eckW66pdkSad1wXyZg+037ljh3719z1bjkxad8bNdkuAABQDcE0gATS0pZShfcFX0PXyRMycFzXiRXlVXBQ7Os5ISdu51Swc0j6q/RrTa1PS7d/XiqA0wFjqjcTDFRSazLdbWvirBEZcAFnxgUMXiBzxTe/kcMq6FbbMOgFlRczpg9sNmpe7lNsF2ck06n7uQYDm5HDLuD0lhVqJjxyWN9sSEnfl0OhmApYC2mo0nhaBU4plfZeDaQ2cXxabU9pE+fY6egTK73KMdumtt23bnqZOthLH/Fq1GuY1mEfr6l5tMn+xP2mQ+tzJqv2hVrnnnKpFM3uh3A6jUtPpzoXlmZ92xtk0lzt56h9FVDx2Ila39psFwAAqIxgGkACOVnThfKI2tCivNx7LxQ+mGAnJW1PuM9lBIJ0x9Q6hgOlhwuBoMKYXDU15G37dUBjA5ncbX/gptn1T7XZmr/xHvVvhXklYeaVvyez/hpCn7LLUmsYVbMZToucXnG1Vqtl5u8XOx0L4qVXOXbbpoO1o4pZZ1djXMu0LrHZeZSsz4Ssrqt/WvfbGwCxjciCvtnhb2p+sUdtd06m/YFygEvzsvuqKOmxU7vtAgAAlRBMA0jADsKUfWibcjdtX8yh/Sps1EF/sc+ofenRmO0kuuns/lb3dsvcvNZXQ8Gop5bLqoNY6VWO27ZCP+ria7TX+3GTb38NjCwEW1+UD4Adl+bV7f60AwBgpyKYBpCYfr6vvy9m/Z87HK9GVltbVeGsq6nMXXfrGX4d1iGOq62riWrzquWytqJMOsZKr3LcthX6UYdfumlynbc/dmCalK2Zj8U0pfaa3JevdS6IXZveLMcOAAAII5gGsHle/84aNR+N6tNpavjyayqs8YkY7Mk2q83L2sf6g2uOXqWPqGmGXHZeyZSdl1P+78PS35WqXIuZUOx0LIiXXuVU23atlmkdLf4Nl6RKmrkP9cuhkhr74qji49cGJV1p4DGjfJqbfeXTyGMHAADERzANIIFxmQnUQrvCfNnmzQl1ZsQ/4rB+FJB+FFNpX960ZPzroUdF1iMgF/rtukHP1PzCzdDH7xRH8/YGjgqONK62MTyashl1uVI/cT2vK2JGLS95XJT9XP7vuil1TrIVa38Tip2OnnjppUUFdtHpqFycKaxH7LR2j+AqrH/os308VHBfDD93SFL+GwXmN8H13hyvT7I/PYdl6pU+KYmllYn37kk+dUgG1TlRaeAxq0yam4Hs3HunoccOAACIjWAaQDKq8F/sF+sek1Wjwnzu+pisHfH3ubWPmSqODO48zMrY2mBxPc72iejHC/nX48yAeaSU6Gbo3nTqNbiW9dXijciA91itwjQ9sqC/c1NoNlgrP7iY5fUn10FPcXkZ8WoNy/zdPCoqOErzVsVOR79Y6aUDOxcUm797wZ1OxzGZE386qteRNV/tbLy0Ts7e0PEHr1X7Kycwcbzbjkpe6E9+SuR1O4p2CTPqekpSqYhB+KLoNPe6Snhp0rNgvgtq3LEDAADi+8zBgwd/4d4DwDYZl5nljMj1KgGfop/lnJHaBfBx6GUOro0FH2HUlOKn466hWw2cPST3Co8k089kHpW229uTBttxfAIAgO1BzTQAVKQHk6r0iCNsJ/usZt9juXR/ZqnWX7lOVGA/WG3gMQAAsGsQTANARbp5Mk1pm5GpBe4M9RmePCHd3eX6hteXCeyrDjwGAAB2C4JpAMCOZB/Rtv03OnRQX+jDvE2BPAAAaDz6TAMAAAAAkBA10wAAAAAAJEQwDQAAAABAQgTTAAAAAAAkRDANAAAAAEBCBNMAAAAAACREMA0AAAAAQEIE0wAAAAAAJEQwDQAAAABAQgTTAAAAAAAkRDANAAAAAEBCBNMAAAAAACREMA0AAAAAQEIE0wAAAAAAJEQwDQAAAABAQgTTAAAAAAAkRDANAAAAAEBCnzl48OAv3Pst27dvn3sHAAAAAMDuVdNgGgAAAACAvYBm3gAAAAAAJEQwDQAAAABAQgTTAAAAAAAkRDANAAAAAEBCBNMAAAAAACREMA0AAAAAQEIE0wAAAAAAJEQwDQAAAABAQgTTAAAAAAAkRDANAAAAAEBCBNMAAAAAACREMA0AAAAAQEIE0wAAAAAAJEQwDQAAAABAQgTTAAAAAAAkRDANAAAAAEBCBNMAAAAAACREMA0AAAAAQEIE0wAAAAAAJEQwved1yclz5+XkU+4jsC3GZWZ5WWYuuo9JDE3J4vKiTA25zzvU+J1lWVZpsHht2H2zfcy63Bl3nxphC/sfBcPXFtUxNKNSc4+5OKO2eyt5AMcffLZ8PAHYS2ocTNsLki4Q+l/3Fz+QW5dOSrubCsqBozI6OSOLH90vptWD+7I4Nykvu0ka4eibk3L+qyfl/F9MyUn3HVCOF/CVfwUL8rZwT6EkjpHDHdJxPSeprn7Z/nB6DzMF6SYIrMxNotJzaitqfT6a/GBxqvmOV5d2zR8cD8vUYpOmYZOwx6xKo7I391waNvTmXwxNdAwW0tD/2mx6NXi77Lr/f+Rvq54nLv4w2+WOiUrrGbEdkekUmqbIW0YoP/Xy7XLpy42aXal+NdMbG7LxM/XaEGlJtUrXC+fl1rXhXRxQ98rwlRty94f3q2cyB9RJmL0sw/1pSe1rsemkX9IiqS/sb2gara//VC1X7a71VcnZr4CyTMDX4b2y5pjJz4/5vhuQETupMi6ZXpG5C91yYtJ9hYBAQVFfZI+lJb80KxPu7/W3O2rkaleTrtJD7YPc9Q4ZOOO+2i6TJ6RbnVPZh2npqcX+UYW8U5yPTWX42inpkzkZ6z7RwHN+h+rM7Ph8qvFswDfadU/GCtdo9bowJ3k3hdb4lkhxDUt/V0qVMf5MJpbUGqcOSX+5IPRij6TVP7mFYglESx9LejMyJ1l/Wl3PqXlEtBgb6pdDqbzk8yk59JzvbyrfvjKv1rWzJ2K5an8cUdf4+SvkwbtMnYLpvMz9hyflyafU68kOGVIHow7YUr0n5fQzdordp0v6n+mR9sda3Ofyel87KX2t6s2nK3LzD5616aRfh1+ViQ/X7EQNMj86IE+qDOPJwRGZd98BtTB+JyNtO+iioQsUjWxirQPp0bZpc8HOSkYW92fN++7jFKu3iz1mx7Y/kHb0MZnpzMmCb302d5yqQtwrfbJ2vbaBtLm51oyBoLsR0Sz7MZK5ubEmWQLpGHKSe7iZwGgbNcMxeDEjfSrgm3s9dIzpdTscDDpja+R2uYD13nsTMvHePRVZhAJXn/EeE0oH8kp5qI4bFWJntnKj4MyAZNWxF24xNvzcIUk9nJYrKsgP/23i+LRZ7mA4nzb7IyfTXON3nYb0mZ49k5Ufmttg7dLZb77a07paH7Vv/v5DuXRrxb7XPrkpY797wlezB+xUw5J7eycFhsOyX9/gaphhSa9ekQ5XoNFByZXVdOCCjEZrvmPWtgTxt/bYvNnXmzy43HNm5UqN9u1esPC2rk2NCFD2kKQ30ob3t6n/X5PVHVoLOv7lPhOwmhuAk7NyT1dOR3aDGpeeTvXPw4XQ+bQgWVNLPLilZtUjCzm14DZT823pVncpUwtugvySGvMRs9xUb8Z388erlc5yzu9CDQmm/Vo+r/7P9Rf+YNHXX/j+osy4ftW9l+/a70r6R/TK5e/Z6W+dU1O6vm26eUr/yJTc/cjN66O7MjWio/Z+OZ/9QO4/cN//cEYuHw82ou4fmZSZHxbX4/6i+u3Zo4Wm1qb5i/p+5mKXvDx5Vxa9eanpJr/mpjLrMSp9KftRNwnR05TL9G6vutrnA/3yja932fdltB+/LLfmfP04XDoVfhVIgxvygV4/nW5nb9nvH9ySUTep1StXv2/ndfdyb+D3fl1ftcstpJ3uz/3d4pyqrhf2NN18cfRsaS1CaZ+katMk61vkna/l5m0uaK4vVfClzl+ZkysmkCo2fQ6vb+yCjHdeFV7h7UhLz7HRwDSn9ucCtQdm2SYPDI1FEXWX3eun5b3U78bNupevybFplTEFBC/PKpl3aL6l2x9aN/0KzcMsR39XdV5Wov3v0jmjC1KdGfeb4DbHOea8PHz0bHG6QJNSs+52XaofY+XZ34a3yaWhSTf7vjRtisetrqmOVbNhtslb1oRM+ArUZj0q9j+MOvbH7Tr49m/pfCLOr8jlREwXPvbKCh9zEfvAHWslzYKrnpfh7a5y/IV4vw0u121rIR3c57PqePOWU/M02oVc89lU76mY+6Q0b4rOc2IcT07w3I84vvyijsGS4y9Z/pGUrc2tcAOiUv5ZyPOKx6FJv5LtsumnP5fmGRHLdb8vTFc2H7IBcrHZ9oScuK2D2oim3qaJd17m3i4NUyeOX5G5fEr6Xim3nE0wy3O14CbIV/P/cnBPltROUyu9qzUmmD7QLo9+Tr/Jy9qP1D/PZSSj+wv/fEVyD3TznXXZaElJ+oVR+fbZdpm/8aGY+trwSfPMV+TXD6h/P12Shb/w1ei2Dsrlod+QX/5xTtZ/pj7va5e+r52XW//rVTNK9cryiuQ/Vd8/lpajf/iNwgnVrzKSq1/rl/Tn8nY9HqzIxufUb4cumvXwa/s/XZPTvb8sa8tqGabNerv0v/ZtGdXrs/rQ/NYsQ9lQ62Hm90l0k+2VM1mZXdfv1An42i25//0bMv7V0jC0/WtTcuuPj0rXr6jfmPVTy1a/Sb9wXibfzLipnJYeGR3qkdZH3OcL07Kg0+KRLuk9a78yVBp+cb/6V6Xh7DejG3brdLlxTi33Cylp2Vi32/KPG9Kyz94tSLRegKMLIqOmz2axP5JuPuWng7pTcsX3d3WORATlpfR0y9Kz4M17TF1A05LxX6jNRVwFzeu2ObV92X7fpp9UqLll25HFwLqYwcF6R8sUyIpMgcL1u/V+OzbvywtMAcY2Jy7M+8KciJp3SWE51acK3D2y4Jsurwo9gXXQ8zurm/C6adRrbOmQuXNeia31tNtfWFd/0z9duHpF5Iq3bLf9/sLh8LVBEd9yI9dPizEvLfH+PzPgplPvH3r71avts4XAUd2U1s3PTquOi0CQpKY7IoFpxlShPX0sHEjFOMaqGDmsf6Pm4yt46abl6fycjMVpdmm2MWZt5pkFtW8jmkWq82BQF1JvB493P3uu+tNtTO516cKgm6AcVWA8tOQfQ0EdX/oY9h/X5c5DfYxUS0vz29C5c10ko863aqqel8rm8x9r4ni3ORbTR4rbYfpFq0J0IX+Jk0YmQLE3+Ip9Xb28au+KHRjFzWNjH082L8m0+vaH60sbzsPK0ut0rK3i9a/mCjcg9I3biOO4Yv5pHXrllMjrdn0rtdqJdb0suVap/FAd5aMR572+tuh8MetvTVMmTzNNvPP3ZDayBl4F4a+r65I6x05VuXaXY+e/Vjj/zOdCLfiEzOr+3CV9pF3ttKlJ19cYaqV3s7oH013PvSxX/yIjXTrIW1+Qm99R//7kQ8mef16e7BuQgUH1Ovy0XFIHnYoIpes3T4q8f0lmddAdOml6/80XTY3xxuK0nPvEfmeoC/y9/9eAPH1Yvf4vb9ggUk3Z1bki2VNPq2U8K92jsyrg09OqAP2r6t9nxmX0hbS06ELMoJ5Gr8uz8vy1JfVHtR4Do6LK/QWpz94rTPf04FuypAPnFhWo6iGwv/WS+v4tufdzM6ms/Ce7XS+O3rRflJiQocyrMjGvgnf1qWV/j2TO3ZLF6ctyUgfnxrB843/qk5TuV/1Stzxr1k8t+4/sdrT+ZkZO2wmt/Wl59KMJefW3VQZlLtpvyPfu67mrC/uvF6f00lAezAfT0HNgVE4fVemi3q7PjsmzT7m06es2/aoTrxegqYtopjNfMvjRiDpnAxcXdUH3X7BHXNO+OAMw6YHQis1YS+9i2yZjqsAQCFpGZMAMxlK6jNT6dLDwoAoeOsgKNt0KUYWzU7r5lyos+JvUThwfcNvtXVTHgvPW/dBU4aO0OZpOM18aqemmVcGn2NStOL/g8myhfmtCNxjOZFVBVuUnPcWt18sJNB321q8tXBitPi9jC/u/hKsJyIYKh6UBrTpWuoPT2FqFlLQ94b5wqh1j1bmCnQocTSHcBLYRfRprIqqpoTpidF8/tXWBvoV+3jr5jzuTRjGCOXWOBAvcdh2kdb87Xquch6rAm6mwr73fRp2XFVU9L50aHH8jh21wbAvurjnodV9axkkj7waL/5zRaRTnhsuu5s6fioFR/Dw29vFk8pLQeaqmC984qcQ0uQ4FfCXXvzrQebQdcEzfRNS1wfFvDqnMTWQp3rgn1a+Xdr/ocyyQh7r9GTzv3cBjJYNxjshC4Pqn2RrsigN3Fm4qxG3VUKRvwpmyS2Hfh2vM1Va4FgDhfMJcR/S2qfOZWundrU7BtL6ba5tw3HrztBw5oEKzDVWoGR2SrP7zO5fkXcnIZHZGZnRT4vv6Lri75d2i/12Rc7cXTKCZSqsD0fzhqPz+v9Jh4LrMZ98w3xSoID37Z66m+pNLkvuxfbvxo9sy8p59Lzfm5O+8/PGz6vU7PZLWAb460Edd03H9uuvVEKc+H2iyvPL+GzLhBZ+fTMjDv7dvTbP1zdD9o48/KwN/8IbcfmBXLPX4UTn/1ypj1gH1V/XAC+rfR9rl6JvF9Vv+k34xXTv3pey/nk+XZPr/NiY3fQHyG9l5E+C2PN7rAtxe+cqvmdsRsnB7zHxT4mSvdNlIWi4NTdgWAn5J1wtQKt85LgqPxCmTq6Lrjtr2Vyuu2EFKAj5eU996AVHpBbDA9cUKB3ZR006YLhptsr/MBbl6oFIcUKVE1F33iDTLramV9fpvmfmJrK2Wzs9MtxUl/c8mZNXcMSsW+i1VSPI1RzVNBsPTxJzX5vd/qWDtgV+ZmgRTS+Vth23+HlxutWMsJlewSx9R179X+kTqOEhfaSHPGx23fA2JPYaj+lnmJO4h5W8Oa67thf6Gyc/DovK/tedleVXPS6c2x58Kek2tXEZmdFAcCB6KqqVRY0f130G8G3blbmrGzmPjH082L3F9d30CeXEVZp66vJmkqX4gT7J5q61l9r6L2Q1B30jQNcGFoDp+94Woa0uU8unorpduv5Q0xY46xyrsQ9t/2XcD0zXxjtzfPt4N0nBz7FLeTQf7si10ipUApsY8nJeUzbvsjbJ0J7XSu139aqbNo7Hyphnwwu035NXBgUJga5sRn5T+7nZp+3RNnYS3ZfahrUUt+FZW5k1hq0sGX1T/vvCvpUtHaesqaLyhJ/DJr0lUHfDGf/+pexdBB9Sari1/52bp69as6Dpqz8bP/E2iV+S/uybdW7Vy65K8NNgtz/7RbVkxTdH75ORrvcX1+1lOZqPW753bsuAmMf7+YTHY99yYliWdhvu6pPc19a/XxHt9XrLf0hNE+LwbjVylqbnxEZZ0vQBVgDeDe62vbl/hcGi/uqTXX7pNFYp9zcFKPNGmLuc1ZOaXl7WP3ecGswHBaKDZat2bLsaSZEA512fy7CG5V2iCWd8mtaa5qiqSpQv99OskXMirFGg4VY/hCrw+kxl19fCOh0At31bOwy38divbtCmm1lLt386cZEO1yXHTKG4QsxeZ2n8d9EQFpnHz2NjHk8tLdDcEF2B5r0IlUBzqmPC6wdjfx6gh9oJg99J5q65x9z53+IK8WMz8XMucWH2Ia3htMfulWNFWfNkbl36BgcfCQjed496o925y6f1YuWm+bs1UTPNgs3d7M1LlKIGAuzBmUsRAZ/aGQvVgHztbnYLpvHs0lm0G/OJLl3w1pqfl1O/oZsQbsjQ5IN2/NSDPH39J5tZCwbS60Lw5r+tFW6XrdzJy9He6TI3nyvyb0UHepql1Pf2qvBp+/dFEQx8VtXLtJZl3afRoq69OvGVDVl6PWL/Tl4Lp8Ol/L61F1mn4A/1ti3T1vlxo4r2+NF09DVNtctS9jRR3vQCvFnI7ubvftVF+dNSqtcGmJnOXKDTdb8ZR2+Mfc4UmtUkLpltgny+cj2iuGr/2Nx7XFN3Vwpsa2lgFz03wNaUONuH22cp5uIXfbrmVRlLu3MjrPvWhPrp1TaM9o0JgFDePjZ3OLi95WLz5EXwlaKpdCI7deAsJB7irDZcnJOqeshXuemn2i71eRKVj8RpSofWK4W/qnbAVh9c0f7OPWHMtwfzjLhRepta/tD839obGDEAW0CqpffrfDfnpf3Ph34Fh6f/V0jt83kBkrV0Z+cqvqVC6wqBZif3tqu1D3dorwxf9z+tql6N/PCmXdb/qTWp5xPRKLmv46i2ZOpcJjnz9nMoUdK2xsvFzlcVP/sjWVD/SJV8aG7b9nJ2ur0/K1Zi59/xf2jRsefy35bRp4r0i85MVwt1barn6X5Uupy4VRzUvqNF6YW8xhdmSAToayQYpkU1IvQtk6OIdNa29C16+hss25atQSDEFuDIX3JjN1QLKDTJVuIPeaLZw0wzKH3MubSKbgDtmX9SJF1Dd7jZ9OKP68ZX0OXfH6KaYY0Q39Xb9dysMPKaVNKP0bGodwsdh8vOwqPxvzXlZQdXzsqbGZeaYbtZ5Rbr9/ePLSpBGKCoERqfkkPvKiJ3Hxj+ean/98sYgSNhFpKZq+8isqtfLSvvFJ3LgsZBCHnUt+TWz0KrhlcBRE0vF7iJe94PIR3dht9uGYHpOHpo+zSnpe+0DmZmekbvvjspvmNG+Q7yByFp7pEdXSz9YKG3KvFnvnJM3TdOqFpUZT8r9uRm7Lj+8K5eP98iveM2ZY7tdqAlpf/6W3J2+KzOTZU6pVLv0fXVcbj24L/c/sq/lNzOS1i2sN3Lyve/oRutjcumdnJh+472jZr30+s3M3Zdbr/VL52N6RjG8/1fyoU6zlErDL6h/fzQrl943f4mm0vyt9/WGqHR54bLcXbT7yPRtn9aZZY3WC3uKHYVV34kP3hEev7PJO8SJuYFOdBO78Ki5Z+0gNCX9GkOFYDsQiSpYVQpGTAFP5W1ngzUOw9dm3GevP2VolFPdN84VwJPVjnqDTIVH2dYjCLsPFW2h4O76C/sLR6aW171vpKjCbvljTjfJKza/Nb8NBFo2GNoUPVptxeabwzL1iu94846XQpNLrz+3/9hzv3GfkrM1Oekjg9JWriDoZwaH08ewfztirIOr6fMfS6XH4SbOwwKvlr10NHvTT7+SqudlTKYPa+XaRK+lg2m+rwrYpn+8VxO21TSKata8h9nAKCWpQPrFzWPjH0/eY45KRu5X0xbOU3Pulx/du+RYc4F9Pbvo6GtWYNu0QjoU+/DW5GZBIM+yyw5eL6OvVWpKmbrjpau9sVS1ptndRO7rVfl0uebgZblWDeqgSZan2puRlW7Clr0RiV1vG4Lpm/LSH70lSz9R4VhLq6Q72kWWJuStBXUylygORKZrshdun7O1pjWxojLI43JOBYZ5vSpfSEv68bS068dkzWYl6w1cFtuKjIzr7VJvH0lJ++Pt8ug/2zUPW7o7Lwuredn45xZp2WdfspGXlf98U85lBmTEBbuzZ35PzkzOyYpewcfazfqlH9uQ9Y9uyltTdprq5uXSrOv9/Yha9g8iBhULUOnylRflVW+5KbWPzHJF8v9gf1mb9cLeogou3brPlw5uin2NMlKhdrDWTBM7VfjShdTCOrjHokQ0ucxdH5O1I8V19R7rVb6wb+lHTo3NS6Bv2GjXWrFprSrYFx7T4v7uPS5kM82l9Witus9l4VnR6qUfUVIyIm2kYoHS/DZJYV2npyu0esvVj43ajj7ThcKuWQ8vCCxzzJnH2xSbZtqRz3Wg5U2jH0WmC+nJmZqYsoUtPVBbMJDXzIjRvoGJvJHYi/tTP5pGNws1f94UuwxVeKxUG1+g081rhppkHVQhNdAntMxxmPA8DNDnTuiYW+5ZMN9VU/W8jKFaM3k9hkBw5F/fsWkCsa2lkZSttd+r3EjoYXHz2NjHk9pv3mOcvOn068haxRrUoLbAsWcfk5Wsa4k+hpNeIwLbpl8R6RCdfyYT53ppRhZXaeu/Vun+xm0L7nwxrVPi1DTbG4Ra+ZYsFbinSSTiWitVXJ4X5Fcd5Ay7zWcOHjz4C/e+KbW/dkNmvt4jLeuzMvK0Gw0cAOpmXGZ0wVUVOKoFzs1M1wyMdt0LPV4H9WOD5bbbTXjc6NooM8DaVvqF2+3Tg81t5qbPbqCD5cG1vbv9SKAm59xOULvrpbkZpUr5VW+qAU1mG2qmk+iX0RdUIK3erS/8LwTSAGrCjqi7uTvwO4Prh7mdI6jvNbpWRSr39dsuZnTcrQ485vo074xRpnUBfzlZS4uq9HgAPCsWMZnRq2vbL3lXG9LPt99kTTOwzZozmB6alJnvz8gHH03KET0o10/m5M2Xoh5+BQB72/id0j6c4X7BaADdNLcZWwF4hdQqA48VqUA03DdUf1e1T/Nup5v6Jhi5GXvYsEwdqdTlAyVM14ad3RoMe1eT1kz/krTtT0try4bkH9yUc/8jzRQB1I7pu7VLCsa5tWA/UP0K9wvGHqSbmerjwfWRjF9IzclauG9o3D7NTUMHvh00F0VjuUHIzHOH12muDOwVTd9nGgAAAACAZtPkfaYBAAAAAGg+BNMAAAAAACREMA0AAAAAQEIE0wAAAAAAJEQwDQAAAABAQgTTAAAAAAAkRDANAAAAAEBCBNMAAAAAACREMA0AAAAAQEIE0wAAAAAAJEQwDQAAAABAQgTTAOpi/M6yLN8Zd5+azNCULC4vytSQ+9wAw9cWZXlxSobdZwAAAOxsBNMAmoIJNpeXZeai+wJ1Mi4zKp2b9kYHAADADkEwDaAJjEumd02yF+ak7diM+lQ7TV1DHlcNa9LH72Qk/TArHYdH3DcAAADYDIJpANtOB3hyfUBGJk/Ilfk2yVBrWh8XZyTTOidjBNIAAABbRjANYJsNS+7tDhk4Yz9NHO+Wjrdz9C2ug+GPs9LRfUIm3GcAAABsHsE0gESKA2m5vrfeq1xtsmmiXJxu8Vo4TE5L5qxvPvr15XQg4Cs01a46L5+LM2aaTKd635lxvyltQm7mXZhn6d+9vtzFV7C5deL0iD2dNixTi2qas32SUv/1uXQKbLfbzuIrqjm4Xebo2dHidKHlbiqNAQAA9jCCaQDJpfpkdLlHFjo6pEO/LsxJXgWsJYGXDmJfEbniTXc9J6ne0cAgY8PXBkWuu79vcV4BZwbMdNmH6r3uI2x+NyDFBs42OO1ZcPPrGJO5vArsAyNuj0um656Mecs089O/CwXdcdMj7nQFE3Ki202n/pu7YH/XfdzeajAB8LG2wvf6NTYvZrsaksYAAAB7GME0gE3QgZ0vMJ08IdMqaE119YeaZ+ck629WfCarAlaRdE8xFNXNur0m3oY3r7a0+8JTfV5J5efHfMtWgevtnFrwIekv1OyOyECoWfTI2zqwbZP9gdrfuOkRd7oYhqZksFPPr1tOTLrvFJ2e+gZC+kjxpsB2pjEAAMBuRTANILn8PZn1BXBabk1FXak2CYRnDxd8NcHahKyuq39a94eCR9ec2TUtNk2zw9PEnldcebn3nj9MVj5eU9+mpO0J99njb0rtmlwHpombHnGni2H4uUOSipifNrIQvimgbUcaAwAA7F4E0wC2le2zPCqHlsYKzZBN0+xm4PUfPiaS9Zo+mybX2y/dlnLvqmvqNAYAANihCKYBbB/9qCbTVLnYD7h5DMvUK32SMv2t/X2tm4Op0Y6jqdMYAABg5yKYBtBkxqVHN0FuUqZ5tXu/nSZW1yKaclvjPenIJuVFzZ3GAAAAOwHBNIDt4/ooH3qu2CN3/E4mcf/hSkwNbmdPcPTtWFx/Yf9vh6bkVO82hNKTq7IWSic9WrkdWbz0UV2mJvp1N5BYA9IYAABgLyKYBrB9Jk9It3v8kjcwln5UVS37804cn5acCh0zZv6lz5GuZOSwe1yWWzfz2Kht6TM9Itl5FRK7dPIeaTVyuPgoLC/9RnvXJNvhG+G7AWkMAACwF33m4MGDv3DvAQAAAABADNRMA2gObuTsmYvuMwAAANDECKYBAAAAAEiIZt4AAAAAACREzTQAAAAAAAkRTAMAAAAAkBDBNAAAAAAACRFMAwAAAACQEME0AAAAAAAJEUwDAAAAAJAQwTQAAAAAAAkRTAMAAAAAkBDBNAAAAAAACRFMAwAAAACQEME0AAAAAAAJEUwDAAAAAJAQwTQAAAAAAAkRTAMAAAAAkBDBNAAAAAAACRFMAwAAAACQEME0AAAAAAAJfebgwYO/cO+3bN++fe4dAAAAAAC7V02DaQAAAAAA9gKaeQMAAAAAkBDBNAAAAAAACRFMAwAAAACQEME0AAAAAAAJEUwDAAAAAJAQwTQAAAAAAAkRTAMAAAAAkBDBNAAAAAAACRFMAwAAAACQEME0AAAAAAAJEUwDAAAAAJAQwTQAAAAAAAkRTAMAAAAAkBDBNAAAAAAACRFMAwAAAACQEME0AAAAAAAJEUwDAAAAAJAQwTQAAAAAAAkRTAMAAAAAkNC2BNPjd5ZleXlZZi66L8rqkpPnzsvJp9zHOml//rScf+2otLvPe9JTJ+X8uZMqxYFtNDQli8uLMjXkPtdDI5ZRxvC1RVlenJJh97kpXZxR+fP2pM9uZ659d8bdp+0yLFOLca/BtdEc212eOS+XZ6R51xANRR5YGekDBNQ+mD5wVEYnZ2Txo/vmYm1eD+7L4tykvOwmievom5Ny/qsqyPuLKTnpvqu9Ufn2/7+9+wGOo7rzBP4zOAgwHkKIFEik8tmeOGdkclqxu0YqKmiPtaykys4lsWeXtQU5RUuKssKf8m6sTDnlc8Ur5Fz54iV2qAuKNiz2Zld2QmFfZWX5KGSWknAlFqrCQosZa4+VQrwSCXgIYIGJ7/d77/VMd0/PTPf80x9/P9TgmVbPdPfr7tfv1+9P79lCzd/YSz/qMJNKqPrevXR0YJhGz5i0ktfoMB3tWG/mKIX11N21k5rv3UkH/754KQ1zn3UjLP3LWSDVhdQ5ftFVwfcYDR+c1SHwvKeOvYLdiOikPjleZ/uNjaLoos01y2jZoRiFaxE+5sXkDaW6KXE50tcQPlfT3owxN4dm282aWXJspF6zcdMoEHXjIMPxZf3d9XKXF3DDbn4rbDC9hDO1nr3U2hCm0KIymn5nWr+ojEI3VQau+Z2aOs/fJZqemqCYnlQEkzT1Jv9zcYomircQTw18Eh7esZ6qbwpxCpm0kg0uC1HVkgo9U0lM0eSbKqVpstSJAHNK+xouhC+zXj3qvIwPdtimNVK7npV1UqSOaGBXDW3uNpPmoM6764l4G2s2dZkp85Ap+KmCwMYwTwhR/fb5GyS0HmyiCt6nPVP11HaZ3CSxCtWqkCcFQN7P8ckC5/cz2OqjGBKBiClIS4EYgfMMWR5B2gfWSbXUY7s+d9BAPEyReRjUqWC1CDdHO2s5n4zH+firzZBmcS7nWGnMr10DRHXRWd0aBwqroMF03cPNVF/Oby6O05EH76SVt67UrzUPUdeLk3qmAAajjbSSD8yVTe00aKYVXhe1rOaDf8VqailpgX8LtX0hzEE0n4a/3EPrVpi0WrmM1u08RjE+d0tnkNqbVnImsJIao8VLabi8dB6PcMCyb04H0hJ0RMoHaN98DqRF92aqsQoCh9QtElU4aNym/5yRBGYlqOFVN3JqNnOOnScO+NqqT6t92r6mhybr2uZ9c0UpaEZMobq3IkrDlfr9vL5BlC8+TppMmnVMNqmgOlo3SUP2c8KcN77OE8hDjGJnicIb51AQOCuOjXZqXJO8va1apTw6wLl7mGpxY8KHTqpdHqfTj/byERggzXjf7xvMFoDDfFLQYLq6/Hr95lcv0p6j4/q9eO0IdXxls63GCoiqKLRI/uUT9f/upxE1TRt54n7acD8KOTCXtVLsJ3O/sN76ChemCxHAzWOtlaVsRVMI/bQvsU+5sLlsH0+Zz1opPLGPlplCtdyU2DcRLvrNjzlPgiGTZl2bavSNJkfLGyiloZ/oILDpMu5uIy0l8u5u1D1Bwau2Lk/SgikcP0393e00JDdzAnSL6XrmNB+vFVSJfuWXhYIG08cmzCm6pIEe+YafoayqaUv3CRq2+gu/dIIOtDeYvzGrL0KiqYQ1cIo0I2ug6METyb7Gw+m/W7VpL/WdMvNJ/+3evdS8xMzn+E0zyWryKLUt63bS0VOm/7d89+mdZFsKq6bmPX00PGr9/jD17WulvaZ5WPpmSTGaVLXPIbpt415an1gfL7yt0g89sQxej+cOUHSd1XDetg33NdNjx/X69u1eT90n9XdOPu7qg/3wYRqV33rpsOrLbjVnc66vbNtROjls6/8+OkyHbaWJhvZuTtvk30dlP2y/zAdzA74ItVF0u60Wwdb809mHK31Ng9/5LMlmXqY/bL7LkBrM7dEM53A61vloe6U093Kto2dzMB+/k0O6OvlPK93nyz6vfkWlKf+jOjhV6yDraOWh5pWxAKjyalv+m2C232yz+u20NeDOeR1cv996Fx+btnUbG2tz5OlpjyPPfeTFnaYe258xffT3U9PMvo0Zttf8dvK4DVPtxqhtffoovK09eYMo72NImPXZXs9XNN1FIHW7mI/jwn2cec3jK43Tca2D7Gvp2JDKbJN9Xnd6p6Q1FI2p7Qv5bkni9xhxz+f3epFlv3sdG1a5NPEKco4VSEslh3hxmnzFfGaJPC9xbtjzY//p40n9plf+4pF+Kenjnkevi0xL/NYvXlDrHK0LcXG63uTtvLz/nf7c1HlMtu1opYbqEMVH+lVe2T4UI1re5PPYg8tNQYPp8W091D8l7/hi+vBRGn3uMHXemz6orvjTg7T1juvp/FiMpqTL7qIqqm+JUucd+u+ZVH31MWr9o+tpUr77Dk8I8Xfv28vBpCuMW1RHB77Dwd10jGITHL0uLKPQivUU7ep0BcUerlxFbd9tpqp3xpPfvbWZdj8eMTNU8Ul5kHZ+KUyhMqLpc7yM16apqnErra00s6TVRft/HiPVRXr5eg6+OQh/bKtHUN3AmQZva0OYyuL8+2f4dW6aQpX11PrdH1DUNX/FRl72cmk8Lo7Q44O6hUD5Z/8b2cPprXdUqybmU7/oof16kgsvt/cwb1s1lfPGqW3jZU9NcxrcYObgjO+x+xoofG1cr9eZcZq+VvbhbvrBdoTT4KYL2bVDpjmx1X8rJUDyO58XPmfHamlIfc/23ZQLZz7LyEQu9lGqpwHqSKyD7lueoC74tnXcNUDx5RFnQU8VQPh3puz93fh3eL7UgDLHbVHLkKb4tj7vh4giqs+0nQ4qpIlrT2JdllHPWf3X2CFXn3hZxweI9iV+M8YF4Aw3JbYNcfqEaNVdrrVtaaBVXD6KDfmpC+yi/hHvZnXS541U7YL6RJHq07Z9I9sh6ec6PvzsIy8mTcNnbfuNv+uoCQqaPp4ybO/dHNDGB6hHmpd67OOes8U4H8ygZpJO/J/Vf9DRMsXHdksB2XGcmb6HjnRXBW7XcWvmy3rDQ77LAf/kIfM9fnWMrKKIFMTtAp1/UCpdm/bxccnH6gNZ9oHfYyRgHihdfhJ5hwzgt9E7WPMk67SxwtG31spDS4evT3z8k2f3K752Js5Pk6f7Tp/sVj1gz1/4vBuMu9KP03gtOa4xeh57YK9VrB1O/tYf3a6a08u8xPme3j+8/l/vp9M8KbU2WcZy4SB5sCdzKxN1/YnT6WdMHpbuOpVG612reO5JmpjL3dzAt4IG03JBbYk8RF0cwKkgsbKWIjuOumqCk0JXxWj/mhq6s6mRVrcdofGLPHFhmGq/oP+eXojD2H56yPrurS2cKckSOZPduMVZK3pTBcV/uI5W1jdS4+d4/k652EsA20St2e4wLQrR+Z+3UM3n9Hfb9Z0CDkybdGB6x1ZqVhfhaRqxlrFmNTVu7adJK57NQPqEb9h5RPePXhii8NottLfXWcNetztKEQ6OZZCnxtX8+7y9jZ9bR0++zH8sq6a1f12nZ1T4NyrP07Gd61QmI311Bg+/SCqcLl9On0/cpNhKdStUKE0jR3v0JJeq7VvpizLPxSnq77xTb5ukdc1K3Qfojk6KfkkCfM68mnibZb2a7qR1B6XBehlVN0bJvmYAQh3HiT5kXAA/xmFmaBU1uM5Fv/Ol4NPx9C57U0wp5Eswm9o8MOdlZCD9xMNyTiSaEQt3vzUJNmzr2L2ZerlQFapuSBQQVUAkAZnje/w7EqxwoBdxFeBy2RZrGY6AZ1ujLpTY7Y5QfSjGhRxnE9f2NRJweRVWeF779m/rSTOfRTehs2+/UIURKyj0QTerc/drkz5vvEbHrPXhNHTsG56imo+6m+Nl30epuDD4gMd+4+82Oro7BE0fb12bdD8+53Gtt9eqTbECa3uff+knXqrzwSnLdnPBvUn21SFnuuvayIgJ/qXAHVbr6jhueb4a6eufseYo+d3kdko61qQENUHPPygVPi6lzy/vg/QDB/o/RoLlgZwnmBY4Cs8nx014rb+bK6o7TOKmnta+xpmnFoUKiE0t7lgTTXIw79hei1w77dvHfKdPVvzjI97nXTL95FrtTA+dx4Wo4jNmghGa6nX8ljeTh7nzhN21nPvZguQ09PXHvr+8r1OedvepmnJHXgbzWoGDaSb9ozfdSY0P7qdjZ/QJJzXBO3/GJ4wroI6/+DTtec18eOaf6OVz5v2V5t8MRvrupyPWdzmwbv/5iArgqbyS1qppxtQgPd6Z7JE8/sP9NDgh71JP0BTvDNERDowtPS+8yqcgK7uKi17sC7fowN29jKMd9GJi3TIbeeIhLtytox3/OETjUsNeJjXsj1Hfbh1Qf/G/6DuAcgf/RCJDPEHNt6jJdP0Nzpr/qcH9dP8Tth7Yz++hfgm8eU1v+XMT3j5cR9XSX/s1Xu+n9CS35ttNzTV/v+WHtv7vli9whrSQ/5UanGet9RqjE1ZLhNBiPLMaXDwuYK9M8lT3ueh3Pg+uwoqmu1SEKux30/NYRlrOQCYtj3WM6RXki7wwAaBXjWy31932XLYl/TK6rO46hqrZPTvkUShIUzuaMm8XTch9SM6b0xVCVEDrCFKcTex8MQGvo3CrCk4x56BRQtVcmXzLNE12pFXWfeTBb016DunjzaNwZ7a3VxV+3TcSLKU6H1yybHe6myf6eDQ3O9y1RXbZao4yfFft24Sg5x+UlDnPkzdYXHwfI0HzwN6U2tyseYKN+k0pL2VrPWHnCITHKMLrK2XBRN7laI6dhtxEULW18tpH9EC677lrUf2nj1cXIGeNfYbzzp1+jm2OqL9VVDrPad9PIfDIE9LtSydTe+26/qim3p43GEOqZU9i+00LhOwBP8wXhQ+mjfGje+j+phq689vHdI3zDfXUzEGc3eSvnzTvxCCdV9GwH3E6/7p5azl/QQfTbvFJOmLeagGW8+EFOm/eKrIddlbQn7KMcbrgnjejEXoyuoHuvLWFul6Si3oZhb/Qpp/LbZYx9eIROvJU6uvpE/ahy+L06gvumuZx6vqFnqfqs/eo2mKrifdI/560o6RLs3Vxfsq75jqx7VNDnut15Gi/Y1A1gHlP9UXjfG3CoxAXhPmdovK9jFaqlCc0FJs7SDE1QZ4F4gychR1dQ+UI4qyC2kZbc0KpbTR/zstnKrhI5eyLWGzuwp3jxofZx9KUMlHIU68op63MMLuEK3ilJNhwrCu/7E1KVRrnyO93S3H+QV6s1hURr8C04PvZ5IHSxN91bKp+un5ta9R5TeJ3fPQ9dgTCulm41LhbnxPNsX2T2l9pUcTB392upXM51hGiBjgPkgP0JV/BA0nTN3v7KjqdaAov+zmV/2us+4ZjhhtlduqmJH/PceOCXyov8kg7zvftzfeD7xeY64oWTFvGD95Pg6aW9vryAtZVSq2oTZWVgX4oja5tFl7tbPZtLxzyvAVRdr2rSXMdXW+C0WD6qeNpaarIFklTdpvzA/TQ1odSXjt+6AqHPYL48Z39NCS13pW30J/dYZp4XxyhoR971Di7XP8x18BlKTgT8Vivh77dVcTHmQEEV/Bn6roVapTUUoy26nsZpvaw6Jy13P5qDzzYayJMDdXAT6yCk60ZdjFGZVY1uYVgDU7pg2oqnaamzezjmK1/sOPlaMI881QtlXSR8FpXq3CaTxr7/S5GO54D2qlRNdn2ePZ0wfezyQNVvuF1bAbISxLBsRmTwE/NcsH5bAlTqvPABPGJLlIFDkR1qydzwzFdSyUXdf1JkxepLiF45BW4FDSYbn3sKB3YEXE2772LL/BmMK7pdwt1asoI2LYBxJa00iN/qu9eT58dJHt9txpZ3DYoWcPuCN2mou5xevnnalLurEy7so622JZRdd8Wqss6AFknHe7dS6119pC5ygxawC5Oq98e+H+6JFte10qdd6m32pL1tPPxvdRsPma2h54dlVsMVXTLww2qiff0cC/tyNAU/ekRM3DZHW20NzFquM0LE6TWrLyOWk2TdK2K1n+nm/beaz4ClJJXEyzT/DbvGuOsdBCUfxPQDL9jtiXrnfWs0i9DFSRsVJDjWXjQTbFTm+/mxuoDXLvbZ+2Bp3bqkT621Q2cX7r7vHlL5Ln5UoXPDM2MA3I2w2Zm3zvpmxBqe9VjXOzNpAt1PJaGbgbr1YTSJlMaZ+sLmfa75jhOKMX5B3mz+ixvbKNVZpLi+xgpRB6YK6khllrXAnaj8M1UKE1N8Fpk4j99sstw3mVaD1NDnBfV6kmW32n60mcZeMzclEzXxUiPsRHgmdNwWShszbSMqH1vJx09M0qjL+nX2OMRCkst7XSMnn3C2Rg6dxwY3hSh7lMnqK+3j07+nyjVywjTvIynH3WNTf1OGd32VzzP8T7qe26YujeGVRPn+PNP0kPP61ly1t1FvdbAZ+0naPg5vYwTf8VZO2dC2ahRxQ+eoLFRk16jJxLNhqaef5o6+N8jux6ngTf5TVmYIo+N6u3o5WUd50D6jz6utsWP/f+i+5SHb5Um3lM02OM9hrdl8HtP0oBEy7zc9X/LyxuQ5XI6Do/qO8FP7aDH1SAUZXwx66ZR8/cTvE/2bqqlj/vo9w5QeHwuOkZ61aOXBhnIKi3VRDhTTYIZHEea8TmaH/I6BOknl+l3ZFvO9hSgL5Y1OItrhOrdfapfnp0eQTd1BOjO49JcOEY9BavhNM/y3KhrKHLdX2ogMul/LQPAOPoLmxoZe6GY92lbkKaaGenaMmka6B6ZvS/tYElerFp6e62bqVU3n+z09q6ippQ+5mn2Mevk60iQI1JR/cyzfC+fGwqmlr3ePbK6I/3Sp/EwX9vjnqMUW8yNFv6uvTZTHuPnbPZeivMPCkE39w5RyLH//B4jQfJAfaMvZXR7njdxLJlxGFJqyo3Wg32eA2EVs1uI9GV2r4//fNt/+vjhfqSZXo9kyyHdf9p+M43PN3sXjyzS34yzbjg2qZZK2boOqWdLZ7wph3ETIFVBg+mRE4M0NBGn6Q/LqGyRftF0nMZ/eYR2RBqpPd/gNWGaTv1wD/W/U0HhFWEqX8Sx68QAdX3za6nLOHeMtv1TjMqWhClcyTkur0+MA8FN92Q+ofzpp/bWDjpyhrf5Ip/HlbyM0Hka6H6IenWFcgZDNDgYo6k4h7hlJr2unKb4uRj18/c3tJj1e40ztK/u0MvgwLV8OS9jRRWVvc3zHe6hY3qu7L7fQ4OyTtI8fmqEeg+rqenJcs3I7LKKoZtkuWG+bMVpQg3gNs4XmE2046mY+nuZ+XuVPCarv4d6nlG/AlBa0jTrWIWt3yUHZtI8zzWCcy5SR/f0oJrxcQFPCuK2daCgNVlpfkc9oqRQwav04TOFzsQyaofUNCfOC2qsRypZ62I9JqawzaVVH2AWaOAxN1PYkZoVd3M+PQK5bTvkUTCF6jMtTL9I9QgeaxnbV9FkwL7fiZFuE/2d24ge1aOnp+BjpfesBBQeBUCv9eFX02S22plUuul9tlYIyYBVluMO4jPzPs7GtlfQkGs04dQ01o+78hyl2EbSVT9uJ/n7bbQvdXTiUpx/UAD6eEvh9xjxnQdygC5Ns8nVp3/tZICbfhUeg1QFa9Lcvib7MW4nN9oqXGMmBMq3fadPNtKnuJcqbNsfWc4Bva1Jt87z5GaaNY88mlBulviUuBkn33Xe9FY3Q0KcR2ZtqWRqyzPOZ93sxDOnIWnB0qVLL5n3c0ArHRg2d7OyZUJyl1DuaklBuuQXP2s9iUa6l9G6XWYyABSN3IWPyjOECxA4e5Fn4DZNuh63AjALyLEZoWJe6/Q1reIYRqgF8EVqwtVgWoXtAzznzIp06KQ+ual9CPkXFEfRByC7/FTR+j2mX7YM8uXowA0Ac5P0o7IeOVRa+rEjOTTLnWd0OhRuwB4JQMfczTbnIi6squczF7Mfr/QVpgJ0lQC4XKhBcd2Pm4KZoJtuZx94DCBXCKbz1Nk7SqPDJ1V/Yd2n+ATt/ZL0y56m2FN7Mg7yBQBzhTTzK8II0AB56ry7QGMCZCLNnovU4gNg/mlNfSwfzBDzzOisA48B5A7BdJ7GX4/TdFm56i+s+m9fa/V73kZf29Zv5gIAyI1+hicCeZ0OhWsqKP0PC9GXfqaomnXpeyh9IBHoAsw8MwiZepb71Ex0MYQkadot+0KPdYDuWVBMc6zPNAAAAAAAAMDMQ800AAAAAAAAQEAIpgEAAAAAAAACQjANAAAAAAAAEBCCaQAAAAAAAICAEEwDAAAAAAAABIRgGgAAAAAAACAgBNMAAAAAAAAAASGYBgAAAAAAAAgIwTQAAAAAAABAQAimAQAAAAAAAAJCMA0AAAAAAAAQEIJpALisdR4fo7HjnebT5av14DCNDR+gVvMZAAAAADJDMA0AEFgn9Y25g3A9bfhgYcJRFdyO9fGvzkItB2i4gNsKAAAAMBchmAaAgHTQ2LfbfJwrVAA4TAdazOc8dB6PUPhsDy1b026mXGa6N1PNrgGiuraCpCcAAADAXIRgGgAgiN19FCkfoI6UQLqdGpcto5pNXeZzfro21dCyZY38q7OUBNSHJqn+ATQNBwAAgMsTgmkAgABaX+mhZTWbqTAh8xy3rZGWPdpvPgAAAABcXhBMA4BvarCusQiF+X14o7xP9htODOS1u09PT/T3baUDw2Ze6+Ua6CrxXdMX15rPs0+uax75rc6M/YvN8rfXU4j/q9+e5rezLls3b49ujybmybnPtI9t8OozrafZvufZbN0jvR3rmY3pD572u67f5/SIuvZncjCzbL/FAu9PAAAAgNkBwTQA+Na+ZhktW9ZDMX4fOyTv+WVv7lzeRMO1Q3q61UR5d4RWjXSYaeb7oXqKugOr5REae4BonzXfoRiF6qLOvtkSqHNQPGktm18dI6soUhcyM3jpos01PO+uAYrzfwO79PcczbF9LLv1YBORbbnq9/h7gQfhymkbRCdFqk9Th7V8fvWclZsDtqBTBaZRqp/qScyj0lu2zxXwepL9MlZLQ9Z3vbbR7/709Vu5pgUAAADAzEMwDQCFE5qkXndf4m2Nrn7E7dQzGOfAu9IV3MWox958elsPDfBs4VorSGulA2vDFB/soMZtZhKTvsU9Z82HnGVbtl6OfbnSZ7iXlxuqkHp6v/LZhnZqtK8ja/+J3CCooEpTO915dz2FUgZG4+9JIMvBbSTroHFys8HWT9vaxuqG5L7yvT+z/VYx9ycAAABA8SGYBoDCiU+qWmsvuom4fkWl5jFUoZqLJ5wdSgZeShdNTPE/VpDW0kCr+GuTE/ZATotNcjCXj2zLTnA2cY4s50kp82RQiG1INKPnl2m6XvEZ+UMn1fL6xIacW6J099Np180BT/HT1N9t3htqvdz7imXdn9l+q5j7EwAAAKAEEEwDQOFMTThqToXVzzdCyabHHVKTGdRnKjhsjNPkK+ZziengMepo4hy4BjWfbbD6Fm8k6jHL103XjZZKqjBvi2m+7E8AAACAfCGYBoDi4QCwrS6k+1fP5Wcy7+6jyHLd37pQj74KppUOPGCacKd7XFb3BE2at0UzX/YnAAAAQAEgmAaAEmulhuqQeR/AtiGKUYhW3eVuVJ3j7+VNN6sOpMDb0HrXKv41S4ykdbRnU27TpNqzCXje5sv+BAAAAAgGwTQABJQhaHMztaX2eVsPtlF9TrGSHugqdZRtn7+n1sUrePPhlUniJTu+23lcPyIsmFy3wfThXl7rGLlbaomTumjzo3rE7JRHdknf6rM9zgHUcjGb9icAAADADEMwDQABcdB2LKYfJyV9eL2eHZxgRpK25uVXG+3LrY8tk5Ge5buJZ1wH+r1k8CbfC/RIq+7NVGMel2Utt3Yohz7TLNdtaF/TQQPxMEXMd9SjvOx9poWsp/UoLGu+sQhVDHYUqFn2bNqfAAAAADNrwdKlSy+Z9wAAc5IMihWVZzC7Hh01l8yHbSgUpAUAAADMBaiZBoAS6aS+sYA1wr6YPrYeI4nPHfNhGwoFaQEAAABzA4JpAJgzOo8P04EW88HoPB6l+lCMeubI6NLzYRsKBWkBAAAAcxmaeQPAnKGa/zoG3WLxgTnVHHg+bEOhIC0AAABgLkMwDQAAAAAAABAQmnkDAAAAAAAABIRgGgAAAAAAACAgNPMGAACYI66++mr1Kisro4985CN05ZVX0oIFC9TfLl26RB9++CF98MEHND09TRcuXFAvAAAAKA4E0wAAALOYBM2LFy+m6667TgXMv/vd79R0CZQlcL548SItXLhQTZN55b0E3PId+ZvM//bbb6t5AQAAoHAQTAMAAMxCUuv80Y9+lEKhEL311lv03nvvBa5plsBagmr5nXg8rn5Haq8BAAAgfwimAQAAZhkJgD/2sY+pAFhqlaWGOR9WUC2B+W9/+1v1mwAAAJAfBNMAAACzyI033kjXXHMNvfHGGwXv8yy13TfffLOq5f7Nb35jpgIAAEAuMJo3AADALPGJT3yCrrrqKvrVr35VlMHDpIn3uXPn6Nprr1XLAgAAgNwhmAYAAJgFJLi94oor6Ne//rUaaKxYpMm4LOP9999HQA0AAJAHBNMAAAAzTJp2W4F0KUhALf2mZZmybAAAAAgOwTQAAMAMkoHBpI+0NL8uJQmop6am1LJlHQAAACAYBNMAAAAzRAYEk1G7ZbCxYjbtTsdq8i3rIOsCAAAA/iGYBgAAmCHy/Od33323KION+SWDksk6yLoAAACAfwimAQAAZsBHPvIR9dznN99800zJzYMPPmje5U7WQdZF1gkAAAD8QTANAAAwA6Sf8u9+9zvV1DpXGzZsUMG0/JsPWQdZF/SdBgAA8A/BNAAAwAy47rrr8q6VLiRZF1knAAAA8GfB0qVLCzbiyaJFi8w7AAAASOfqq6+m8vJy+td//VczJTdSI/3d736XvvnNb9Lhw4fN1NyFw2EVVM9kH24AAIC5oqDBNAAAAGQng31J/2R5NFU+Ch1M33zzzfTee+/RW2+9ZaYAAABAOmjmDQAAUGJlZWWzsvZXgmhZNwAAAMgOwTQAAECJSa10PgOPFRNG9AYAAPAHwTQAAECJXXnllfTBBx+YT7OHrJOsGwAAAGSHYBoAAKDEFixYMGtrpq+4AkUDAAAAP3DFBAAAmOUqKyvNu2CCfm+2BvgAAACzEYJpAACAErt06RItXLjQfMpMRuz+h3/4B3rwwQfNFH9uv/12eu655wJ9T9bp97//vfkEAAAAmSCYBgAAKLEPP/zQ90BfL7zwgvr3K1/5iu/AWAJpCcAnJibo5MmTZmp2sk6ybgAAAJAdgmkAAIASCzL4mATEf/EXf6He+wmo7YG0PH/aCsb9kJrp2TgwGgAAwGyEYBoAAKDEpqen6aMf/aj5lJ3fgDqfQFpcffXVat0AAAAgOwTTAAAAJXbhwgXffaYt2QLqfANpIcG0rBsAAABkh2AaAACgxCRglcdjSfAahDug/vKXv6ze//Ef/3HegfR1112n1gnBNAAAgD8Lli5desm8BwAAgBL52Mc+RldeeSVNTU2ZKf7JI68keLY/+iqfQFqUl5erwcd++9vfmikAAACQCWqmAQAAZsDbb7+taqavueYaM8U/q4Za/rU+5xNIS5NzqZmWdQIAAAB/UDMNAAAwQ2688Ua64oorcqqdFlIzLc29f/rTnyYC61xIrbQ8X/o3v/mNmQIAAADZIJgGAACYIdLM+6abblJB7Ez1VZba8U984hMqGMczpgEAAPxDM28AAIAZIsFrPB6nj3/844FH9y4EWebNN9+s+kkjkAYAAAgGwTQAAMAMkn7K7733ngpqS02ad0swj77SAAAAwSGYBgAAmGHSzPv9999XwW2pSPCOftIAAAC5QzANAAAwC/zHf/yHGoysqqqqqE2+rabdEkjLMgEAACA38yaYrlq3lXY+vJ6qzGetitZ/5zCdfGmMxsb4dbKbmqmamnfspOZbzSxFx+vw8E7aus65ZpcXpAHMb53HOX8ZPkCt5jPkrvXg8JxNS3UcyLVmrI86zbSgJLh999131aBkMjhZoclvSrAuteBzK5BupQPDnLbHc01ZAJ929/E5PEwHWsxn8KmT+jj/69ttPoIPM5mvIU8tlAIH0/pEUoUJKQwtMZPtVCZl/m4m5S9KP9izhZq/sZd+1GEmsartP6Ddm2qpfBFRfCJG43Gi2se7aee9zbTzxwc4sC4BXoe932imLX/7o5wLVzlbsp6i3X00/NKoKeDx68woDQ900xYzS0nMZBpAcVnns/vlmTlb+UOaQkrLARrmv8/+C7HejuGD+edgKnC00sx62dIu8XcfFzsrkHOnX7ZlQHBeN09kWqR8gDqWLaNlyxqpPY/jRJpdnz9/XgXU0uy7ELXU8hs33HCDepTWG2+8UdCm3frYy/0GAkA62fPAWRoQzIrrmUkbK9+3vax8SafvZXLupuwTW8ySeM2Dmyhzpiw1fxSvZjpUT23fKVy4rNVR677DdOLUqOsgmaSpN/mfi1PEMXPCljuqqYz/jQ92UM3nGunONS3UM3Wepnna9NQE2WYtgDTr9voUTV3kfwu+vCyWcCbas5daG8IUWlRG0+9M6xenSOimSlcNfpHNVBpAEZmL0EaiHhU82F67BiheXulxs6ydGvnvHYNEq+4qdN4w1+hCTrT6tAm+bGln5nBY3pT5As8Xz6bl5n1CwGVAKlUo8VO46qRaTv/4SD91mSn5kgHBzp07p5piS5NsCYTlEVZBWUG01EZLE3J5/FVBBxvb3UeR5THOB+QGwvymbhrkFLTp/BKF2zwsjyD9cnW2J5n/m1fNpkLlVHNH612rKBQfoJ5t/EFVBESIDjnTpeesnhcgiOIF0xw8he74S+reYD4XRDU13FFLVTdIiGzXRS2r+URYsZpaus0kYVrITU4kM43BaCOt5BNmZVM7cZm+gNKsW3cLrV7B67a6pWCFLD/qHm6mehnH5uI4HXnwTlp560r9WvMQdb04qWcqlRlKAygWCdIiFFYXaI8CdPdmqqnZ7Lmv5S54tI7o9DPJv6o741JAle/xudkoF7pZTd8UyKswsjtC9aE4DTzqSidJgzXuFI1TPB7KeANCFxJ4PvNZCbQMCKJ9DednaY7xpPyPE3lUldQgS1C9YMECqqiooKrNHdS+o53uunUxXXPNNYlaa/lXXjJt8eLFKoCWwuEnP/lJ9V0JouW3Cvv4K84L1oYpPtgz7wNpmEkxinGQE944h2pQ58j1rGtTjfd1fN5ppYbqkLnhqfMtucng3j/ta2posz2OmIvmTFlq/ihSMB2n2JgU68qpYcteatAToYSqy6/Xb371Iu05Oq7fi9eOUMdXNqPgAzlrPdjGQVqMenIIyPSFex5crPLUWlnB/5+kCV/pMEmnR+IUqoukKUh2UqQuRLGR0+azFmwZMJt98MEH6jnQ//7v/05T1/4nuvveu+nr//VauvHGG+lTn/oULV26VNU8y3uZdu2119KlS5fo9ddfV9+R78pvFFxLA60KxR03xwCKYegn0qImTE0F6F4zV0nLiEJ0L7osqZvLMepVNzfDVBHiSGUSbSWhMIpWMz35s300IPH0krUU7ajTEzOo2rSTDj83TKNnTL8F6dv73AGKWoNWqSYZUT4Z9MfwRj2fzlh0c8ZEXwfTXyBimj065rX6eLqaalXfu5eODriW/9Oo+lvVuih1956k4VHzN36NnuqjvZt8rJtZl5Q+4kuaaWfPCedvDp+gA9ttg6jZv7tuJx09Zfo+y7o9vTPjTYpjE6b2eUkDPfKNav0+HV6XvU/z9tm3vXdvcpA2+3pseoz61IBufdS5/aiZ/yjplLLU0WPP6d86sZf3fZo0UOl63Jbm/Bp99jFab/6edb1gBpi7u75rosy56dE0UvezHFM11QM/4V8zx4mfpnzWd62X8zvJJpWO+azjz8oDzCtlea6/p86Te19YS9czpwMVDCfM/LUeadN6sIn/EqOhZ8wEI+gy0lL7ReetftI9NV08joGUNPaqcTJdCayXj+a1av1kPivPMS/PfZWyDvbm3Gadt9dTiP+r3+78HbUcczzpPocRTmmiUF3UNl+69HBtl2Oe1L8lt1uv08vtt9Ni/u8PHxyk5557jp7uWEP/9m//Rl//4TP07NN/Q00TE2pgsbfeeosuXPgfGZalqfVX2xI8vXWLiNPUn3LDxromZ/i9xHGVnNe+bjpdk98fPigp7MG1r93XmcT2JebL1Gw/Nf3VMW6OFVWmWB4xf7OOWY9tta2DPmf08WGVDXRamO95pLP9+NLSrNflpHsz7RuUm4ptGfafXabzzM49X/ra78z5n4s53hzz+Mr3SkufZ7b1yHJe+k2D1PPXnfap+yf1XMh+3Ptdn85aqYkeMuWWdho6K/l1uhvUTpm3Ra+jLNc5n3c+k/pb/vO1Tte+Ur/llbd5HXvM97IhsCI28+6ibz0xpProhr8UpajXYGRG1X0H6Oh3mqm2MkRlb49T7EyMpqbLKFRZT617DtNj0lR84ixPH6e49L1l0+diar7Yax5Nlt+c0L/xjv6YcV7WwBnc4R3rqfomXv70lJ73DV7zRTo6XvvnEWpYFqLpCfM7U/y3G8K0fvsP9HYFWTch/Zl/tpOa/7CKQlfGaVzmPce/Gaqi+pa9dPixiJnRuHIVtX23mare4bSZiBMt5LS5tZl2P+6az2Z8Ww/1T8k7Lgg+fJRGnztMnfd6BNVmXdbfWk5krfeb/K0V62lnVzc5l1BBkb9eS+FF5uOuXhqSNF5YTXXb9STljnvolkr+9+II9X/PuzG97PPDezgwW85pzkV+lQaybdcu5qWwQOsFJaNqopxdJ/ISlwGbgtRU6wt8cqAnfh2KqUKq+8Ih02qHzDzST1jGcRjmi8naycR3O7hwFt5ov+jx76919gNPnacAEgVDCb58FKh4/l5p5rjWGSjI+qa9uRF0GVmsesCWnol0SV94SUsKlBsraGBX8rdS+qnxvoqO1dKQ+bvafxzEeBeGXSTYeYBon/VdPj4kDezrqQpgrnWQvvwSNOv5umhzjVku/2fN59VkW7e26FHjQcj4HOnmU1Qhx+oiYZbNy7CuFHJjxNGHz7Hd/tdJUQX3CFWYdbJ+j+R4cBdac0zvcIXVbNJGbWOU6qfs/TQ5fWS/OAJEbdUDbUSP6vmsbZH9E62btJ2HHXS6WmqW1J+TZBu319NkIs06aIB4W1KWw9fQxDGRLr+RQrErvfjYUbY1qs/qOE3sO9M0dneEVo3YviPbKulp0lh1CTDHR8xaz0CtejKs12Wma5NU0nCZ5oHU48jB77Fvzkdn2hJFNrqDDP/XnbT85HuzSOp56T8NKtYOUxvtS2ynlQfb85PMeZ3IdtwH2Ce8n5uWc54pN+2N9jVyToYpooLK9EdTSl5kjiP3d2S59m3uOSs3YZ3X3dzzNb4+jaxSLdBS+cnbAiwbclK8YJqNf+9hevLlaaKyamr+X1vTDHq1hb73Dbn7rwsid952JzU2NdLqW1v4YOTvLiyntV/dSVXfv5+nP0mn39XfGv+XRjXfhugRPcHuqXbawH979pz+mHHeJVHauj6sBiqb6ufl37pazdtYX6P6VYvJX/bQjq+spNVr9O80rt6ja915u+pkSPAg68a2/M+tVH8Dv3mTM4E1NXSnWt5KauGMQAZHK7+rmXbabz5wUH/+5y1qELXGz9VQu46SqfyzTcla3BRd1BJ5iLoGx9VvllXWUmTHUV2za/vt1o42tS7jT5nfV9u3Qwfi5XUUeVjPp4TCVPXmMdrxRTkRpSCxn54dlV/njOQPtqp/Rd2f36L39ZlB2vGamuQSoZ1fq6fyhUTTLz9JLStMGvC2rVy9WRXMAq0XzDxzJzR51zP/4M2TVz9gLuhKoSQl0LT3hzLBaIgzGvt3uzb18gXV3h9ZAhZn/zFrnorPmAkFooIwKUCYC3q2NGuXZo5cSI/YCwomPdI1sw26jPQ44ThgsPfBkt/2TPcsVPNzV21mO+etzvBCgkXbNGv/VTf4WFaMemrsx0ePyq/DtWbLrYLVLmfBI9ft8Y8Lfw/wtU6CMXswxdvWaIJIWQdHPzdruyuC1iDITSHpy9zhDLb592qkQJoyoF0u6d1KlTIuh0vn3R7byL/cKMeh+/hVx9U+ZwEwsX/sx4SclzogTdLb6Oz3yPM96rEcXsxp99gBbi2VVMHp4DiXOG/J2u+Q53He0GinnkE+4DwHYcxBrus1LyX3b1vaAMj/sW8dq475OG3lRqFDkOtOGv7yvSKRG1mO63O2m8Me52WANAhN9Xqmqb0mOGtel+24D7A+3i1o9JgWMr+zRZGNyovkJpgzb9Q3qV212q7jSF2v+bqbaE0WMF+T49eePtb1KYWvvM3vsiFXRQ2mORSijs6nKSbx9B800yP3eYTT99bpms6LI9TDB2Kyd28/tR86xQcjW1FbvMdYNddRtY6kaU+LfflJR773NNGXu+lwbx+dHB6l0TPJJt1li/W//jVT3XI9SNnIU3wC2ILNfi70nZINXlhNtfYNfmeIjmztNx+Iel54VadL2VW6Fjcd6R+96U5qfHA/HTujLw6qZvdnnNGogLqZGv6z3pCqL3XbMtpOalCFJBn5W/3ZmKLB/ffTky+Zj2x/zyBP5TlX1JEOp+vons/Kfp6moWO255TZfamJqtXgaLzPt3CArKfaBF0vmHFSULHueDruHheWbqrVm3L3NTbJx3eoQjWltMSGnMUUNY/fPsR88UneHNBNNCsq/RSZArLSLRHwZijkdPfTad6ERFDI0qWHQ5BlpOUdsHulezZd0gXFVnPnyaPpsO9lJZryWbpoQt2E08FN+qbJXAAa4mM3tIoaAqePD6ZVh/u4TMWFKdO8Ul6qaXHQwCxTX+ZtQ+rmkGNAuzzS29lKRY9q7rmNHsevcLdySb9/YqROYYvZRnttk9I9oWr6neerj/NefS+1Nskv1drB7LOo1CAFPC/SynO95h0r6ErXRNf3sZ/+WFV5lE2Q6046vvI9N8d1SOcFVuCnXz7zcrm5ZV2f1St7azD3eZnPtVfoNK2gSsf6Zsjrshz3/tfHPvBYKt1yxBZU2/aPzovM6N82XtuSss2ufChYvpaa/kJtW4rseZvvZUPOihxMs+fbqePnEqLySfH1R6j1XJzDLBsz4ja9e14deA4/1AejatasJhTBYjP6dnySevQ7lwa+SB6mnfc2UO2SCrpwLkan+vopZpqQB8fLU9scp/Ovqwk2ptDHHEH6hxfovHmrmObkfo0f3UP3N9XQnd8+RuPy3Rvqqflh6cdurcs0xfqP0JGnUl/HfiF/N+Kv0sBh895yuJdGZJ0XVVOd1BZbTbynBqnn+zKDhxuuUi0BZJ+Pe9ZcB1wvKB3PgmqpmJqwlLvspvBaEKaP1vZVdDrRHK8Ed29VwNuRpQljF20+xmti1axYd5vdwUQ6vpZRAtsadWCf2I+lDRKkafKM+EwFX8fiNPmK+exBB2RRR7Nhz9qIbNSyZoCqTQoiNT187x+1jXwsm/7syZe++eXA1/fs57DUVMn5YbXi8NeE1+qHGOEShLXPUmo285Lbes1niSa6XoGp32Pf97FaoOtOLvmedSPUlhdYXUn0K0gXqSDc52Xhr73Z87pMx32A9VE12NbAY+mpoFq1XEg+gk3lRXIDxLWMsZRuANkFy9cyXyccfORtM3bNu4wUP5hm/Vt30LEJfsNB3F/eVcYhkodrr0/N2O4zmd07cVX7WVShCu8m0w+30RelJvmdEeqSgLRpHW1uG6DJvJ8uEqLrP2neJljN5qYpbpqoF9L4wftp0ASv15fb+0/zPnltDz209aGU1x538Jyihx7/hdwsKaPqui2JJt5TI71pbk7YeO1zh3zWC4rDDNzhq7mtSN4gyp/5rZS77NYr/yZznce5IB64H3ehmGA5U82orWZFNVFMU8Oano9lBJW4mAe4y50oJFqFpQL3Sc/A++5+CbwyyUWkDHbL85qlKV6GftB+ZVtWATlurJmbbfnwvX/UNur08soPcktDafqov2+NCZCpP6Xc0GrjwrvqCx346QZB8saA6zXvcaDlCnwS/B77vo/VAl53ZjDfy0+h0sDUovrO69Id9/7XR9dgu1srpeHqEqTyIlUe8FpGsDLCjF132Ewu+3JRkmBammzf/2i/CojLb6l23jXsHtS1vAurKcInSbIheAN1brxNzTv92lBKYFa20KPJeC6OvqybdpfXUdse20jaFhmUTP798DxNmkC06j7dDCOdzOvWRYNn9O2E6i9Zza21ht0Ruk1tcIyGfqan5ar1saN0YEeEHEOO3dVJtVJrzKbflctIF70sNzlY9fpHHOtCt26h7secY3SnM/iPL6o0LFvxJ7RVNfEep8HuDKG0Y59vca6jUpj1guKw+u6m77PmIaWZqm5iF5S6KCyvLWlNJu2u9dWMr3AyNdvS/TFD1W26L9exzXy25MJnc/cEr+dc6+ZzNDXhWIeU/r2m2Zo3KSxJLVPh+6Sno5tbet9MUAWvwDcofDLNFlPTMZPczpOMy1LHc5pmsIF4BYP6hoq7KbdijoNszdzT7h/3cZRTevpn9VHMpb+6Oi/8Cpg35r5e84zVP3ZjG60ykxTfx376Y1XlAzaFv+6UPt/LV5A0SJumGWtRgx33vtYnaOstw3pkVqZrRVC+8zWvbjhKwHzFxveyIWclCqbZ4RZ6/Hk++FPspz1H9cBb0l/hxKkT1Cd9k1/qpojUCHNg+fT3Okxf5mOJi3fVuqN0opfn7c7zQvr8HnryeflRGXV8L50YPqmW3yePyerl0/SFs7pWnIOHrSd5Oi/z6F/dRmUpTa39r9v+R3U/cqmpjx4f5nlleaPUvVEGQpum2JE91OHZ/DkAGRn83k46emaURl/Sr7HHIxSWOwOcps8+oQdH6/geZ+judTl+kkZ/upUawj7Psuf/iV6U9Q3VUq30ZX65n/Y8r/6Sxn7a93Nrn2+lo6NmufJotJO6+WlB1guKQ+6uH+Ls3tW/yKKfb5yk+6E6g29VA2zeB6EHAwtTxD1a724+PgrQ9FFdoB0XnU7qC9ykS/cDy1RzJE1DvQY7GeZlZXvsmEqDkDRwjdFQhkGI/C0j+7pa3I+k6TwuY0fYCypd1D8iBRx7bRH/vgy6ZT6J1oN9ztoYU8D13awtX6oQHqL67c5aIUkvVVtiH8yloAGbrk2T88aR3rxP+uSzqlFzLsvzPPG1TumXpfe/a3ChHMn54mylwkGCDBAlzS8deQOfR/KYsbP2wcLSULVDsn/szWBTj6PEjSXeRue5z/Mez6Ebg7UfEnTh3v4s2pQCvNoXzuBBP4fffEjwDtx85Y3Z1ktG/i1xV4nZQjf35rzQkd5+j30+VlW3Gdeo9arW1Lw3fF131H5I3wR/xvO9PAW69rpaDOi8lc8C6+avn7wuy3HvZ33S9xWW7lyp54y+ptmahHvmRSxl3XzIM1/zzld88r1syFXpgmnW9W3z7GmXwWgjbdh5hEbO8R9vqKLwijCVl8Vp6qUjtCPSSO2J56eOU3vnkzTyJr9dGKKqFVV0/YcSceVjnLru2UAPdQ/QeJx/K1Sulh++gU/a1zmEf+p+2vbECMmfysp5+qeITnc/SafMyN1JAdbtec7sIzvoyEtTKkOpkuXdVEbxcyN0ZOcGLmykDskV1MiJQRqaiNP0h2VUtki/aDpO4780aWoFu8+009e+2UUDMq+1LktCNP0Gr8uBJ81M2QzSnv4R/XYhL/sX3gO52fVzgVb2eexNSdhkGkxP6cJJYdYLikb6f0lTtXLvPkuO0S95Xj2SZ3LgFHnEkrN/lF987shy5fE3tmXK467cg4TkQt/9louO9dvyuCApsAWg7vZmr/mzp4d6mUdhZG+eqpva+3nWd9Zl+FxXXhoN7OqlClv/1MjyGPW4mrpZtQfSHE/PJ49XkSaNZgalwpa+/FKPiylts3rpH2c9CstaD/3YEPd6JAs2Mo+fmw4ZyXmzyzyix9r+7atoUtLffpPK/M37PPG5Tp7L8nuM+aOeZe6u8VBNWfmckYDaWq71iBtfTaGl1s5qBmt93+s40seb9Tic5LKiVDFkCu0BVdjTyqyzPa0SBXj1dymYcn7k6AerH4+T2mc6Gbip+awbDT7zxkzrFagZ67yjz4UUfo99mc91zo3VDnkMolmI607++Z7kW4U6d4PznwaxQx00uTY5T7SOVJPuxI00n3ld5vMx2/pkHniMr1K2/EW/9GO27E3WJS+S9XLNu72ChgLvh2D5mtWs3Vqmd77il/9lQ24WLF269JJ5DwAA+ZIaCnmWdU1uBfqS8rOuUqOjBmQrbcALc0ErHRjWgwjNXCH/cqbTv+KYLVCB2QH55sySa9tGop4CjKUyW0gNf7T69NwoW1xmSlozDQAw30lNUe59mUtrLq0rzEa6xjXtY4qguKRlCaU+ugdmATUqc9CxKaAwWs0z6OdTiw3vMUpgdkDNNAAApIcaFshCHnOjm/3Pn1oggNzpFgP1Uz05jPIOl7vO48NU+RPn9RZ57OyGmmkAAADImXpGKwp5cLmTpsWqPyoCachdbNI5noe8Uvtzw2yCmmkAAAAAAACAgFAzDQAAAAAAABAQgmkAAAAAAACAgBBMAwAAAAAAAASEYBoAAAAAAAAgIATTAAAAAAAAAAEhmAYAAAAAAAAICME0AAAAAAAAQEAIpgEAAAAAAAACQjANAAAAAAAAEBCCaQAAAAAAAICAEEwDAAAAAAAABIRgGgAAAAAAACCgBUuXLr1k3gMAzKiO3ldp43Ki2OFP0+e/ZSbOUi1PnqJv3U40+De30T0/NhOLooX+/tS3qC5kPhqONHrkn+nVDWHzwZue3/u3+K906NOfp6j55J/5PRqkR267h7rNVAAAAIDLwbwLpi9dwr0BgDntkV56tXGSOjk4+5GZNOv897+nU9FqGungQPrvzLRikLTYsJxo7BB9eq0t1FXLr6NQfNAznTqOvUobP+71t69x8NtOdW84f0/NvyxOgzltj/7N6pc76bbmWbvHAAAAYJ5ZsGCBeTdz5mQzbwmY070AYA575J/pzFeW0fmR/tkbSFMLPbHldpo8XORA+qtP0C8lLQYfcQbS4u/uods+fYhii2+nbb0dZqKNlSeaj0lWXmk+GtG1/FuXFtMtf9JipgTxI7qnL0aLV28gjzUBAAAAKAp7DOh+lcqcCKZnKnEAoMS+9XlasWIF/eE9s7vB8Il9K4reDP1v/ux2Wnx+gH6QNi2i9PnDMbq0dA39+KtmkpEpr/T+W5SGzl6ixeXLzeeAvjXEwfgyqkE0DQAAALOAVd7xLvcUzow18853o6655hq6+uqr6aqrrqKFCxeqaVdccQX9/ve/V69iJxwAAAAAAACUjjTtlpfEfVbsJy5evEjvv/8+Xbhwgd577z01LVf+m48T/X+hzAsfp7AVIAAAAABJRU5ErkJggg==;" parent="1" vertex="1">
          <mxGeometry x="-179" y="540" width="679" height="455.67" as="geometry" />
        </mxCell>
      </root>
    </mxGraphModel>
  </diagram>
</mxfile>
